<svg t="1585918816630" class="icon" viewBox="0 0 1024 1024" version="1.1" xmlns="http://www.w3.org/2000/svg" p-id="2472" width="32" height="32"><path d="M467.797333 513.301333a10.24 10.24 0 0 1-4.736 8.682667 9.941333 9.941333 0 0 1-9.770666 0.512 1133.717333 1133.717333 0 0 0-358.954667-104.96 10.176 10.176 0 0 1-9.002667-10.197333V95.637333a10.282667 10.282667 0 0 1 3.370667-7.722666 9.962667 9.962667 0 0 1 7.957333-2.496 1200.298667 1200.298667 0 0 1 365.184 102.186666c3.626667 1.664 5.973333 5.333333 5.952 9.386667v316.309333zM153.557333 163.2v193.066667a1199.424 1199.424 0 0 1 246.72 67.797333v-188.650667A1132.970667 1132.970667 0 0 0 153.557333 163.178667z" fill="#1EAA50" p-id="2473"></path><path d="M467.797333 921.877333a10.24 10.24 0 0 1-4.736 8.704 9.941333 9.941333 0 0 1-9.770666 0.490667 1133.717333 1133.717333 0 0 0-358.954667-104.96 10.176 10.176 0 0 1-9.002667-10.197333V504.213333a10.282667 10.282667 0 0 1 3.370667-7.722666 9.962667 9.962667 0 0 1 7.957333-2.496 1200.298667 1200.298667 0 0 1 365.184 102.186666c3.626667 1.664 5.973333 5.354667 5.952 9.408v316.288zM153.557333 571.968v192.789333a1199.424 1199.424 0 0 1 246.72 67.818667v-188.416a1132.970667 1132.970667 0 0 0-246.72-72.192z" fill="#F0412D" p-id="2474"></path><path d="M550.656 522.666667a9.941333 9.941333 0 0 1-9.749333-0.512 10.24 10.24 0 0 1-4.736-8.704V197.162667a10.24 10.24 0 0 1 5.930666-9.386667A1200.298667 1200.298667 0 0 1 907.306667 85.546667a9.962667 9.962667 0 0 1 7.957333 2.496c2.176 1.962667 3.413333 4.778667 3.370667 7.722666V407.466667a10.176 10.176 0 0 1-9.002667 10.24 1133.717333 1133.717333 0 0 0-358.954667 104.96z m299.797333-166.336V163.2A1132.970667 1132.970667 0 0 0 603.733333 235.52v188.650667a1199.424 1199.424 0 0 1 246.72-67.818667z" fill="#FFBE00" p-id="2475"></path><path d="M550.656 931.242667a9.941333 9.941333 0 0 1-9.749333-0.512 10.24 10.24 0 0 1-4.736-8.682667V605.738667a10.24 10.24 0 0 1 5.930666-9.386667 1200.298667 1200.298667 0 0 1 365.184-102.208 9.962667 9.962667 0 0 1 7.957334 2.496c2.176 1.962667 3.413333 4.778667 3.370666 7.722667v311.68a10.176 10.176 0 0 1-9.002666 10.24 1133.717333 1133.717333 0 0 0-358.954667 104.96z m299.797333-166.336v-192.938667A1132.949333 1132.949333 0 0 0 603.733333 644.053333v188.650667a1199.424 1199.424 0 0 1 246.72-67.818667z" fill="#4182FA" p-id="2476"></path></svg>