<svg t="1585924422470" class="icon" viewBox="0 0 1024 1024" version="1.1" xmlns="http://www.w3.org/2000/svg" p-id="8765" width="22" height="22"><path d="M946.760588 786.570828H829.414021V673.593185a42.323951 42.323951 0 0 0-43.006595-41.436513 42.323951 42.323951 0 0 0-43.143124 41.436513v112.977643H625.985999a42.323951 42.323951 0 0 0-43.006595 41.504778 42.323951 42.323951 0 0 0 43.006595 41.436513h117.414832v112.977642a42.323951 42.323951 0 0 0 43.006595 41.504778 42.323951 42.323951 0 0 0 43.074859-41.504778v-112.977642h117.346567A42.323951 42.323951 0 0 0 989.835447 828.075606a42.323951 42.323951 0 0 0-43.074859-41.504778zM605.779726 610.994697a326.986652 326.986652 0 0 0 165.131673-110.997974C878.564415 362.23909 849.893352 166.52495 706.947621 62.83127 564.001891-40.862409 360.778663-13.283577 253.057382 124.405792a302.889306 302.889306 0 0 0 0 375.454402c18.431398 23.551231 40.276018 44.440148 64.851215 62.120637C145.404365 635.911216 34.133333 800.701566 34.133333 982.489761A42.323951 42.323951 0 0 0 77.208193 1023.994539a42.323951 42.323951 0 0 0 43.006595-41.504778c0-177.897122 129.292843-331.42384 308.760047-368.627958 58.093036 14.745118 119.257971 13.721152 176.804891-2.935371z m-331.765162-298.79344C274.014564 185.707256 380.780143 82.969279 511.98439 82.969279c131.204247 0 237.969826 102.806242 237.969827 229.163714a221.586362 221.586362 0 0 1-47.853371 137.825898 240.154288 240.154288 0 0 1-121.305904 81.507737c-44.917999 12.970243-92.839634 12.970243-137.689368 0A240.154288 240.154288 0 0 1 321.79967 449.890626a221.586362 221.586362 0 0 1-47.785106-137.894162z" p-id="8766" fill="#000000"></path></svg>