<svg t="1586405097359" class="icon" viewBox="0 0 1024 1024" version="1.1" xmlns="http://www.w3.org/2000/svg" p-id="3181" width="16" height="16"><path d="M 978.742 187.385 l -44.588 44.286 L 785.67 84.1 l 44.588 -44.224 c 16.363 -16.302 42.156 -17.156 57.485 -1.886 l 92.825 92.218 c 15.39 15.267 14.537 40.879 -1.826 57.177 Z m -393.81 391.382 L 436.447 431.194 l 326.654 -324.586 L 911.588 254.18 L 584.931 578.767 Z m -20.682 20.56 L 356.396 658.33 l 59.37 -206.578 L 564.25 599.327 Z m -346.062 -448.8 c -51.34 0 -92.886 41.545 -92.886 92.825 V 800.55 c 0 51.267 41.56 92.828 92.827 92.828 h 557.319 c 51.268 0 92.83 -41.56 92.83 -92.83 V 429.065 l 92.884 -92.83 V 831.51 c 0 85.467 -69.285 154.75 -154.75 154.75 H 187.166 c -85.466 0 -154.75 -69.284 -154.75 -154.75 V 212.39 c 0 -85.467 69.285 -154.75 154.75 -154.75 h 495.398 l -92.889 92.889 H 218.188 v -0.001 Z" fill="#515151" p-id="3182"></path></svg>