<svg t="1586400801335" class="icon" viewBox="0 0 1024 1024" version="1.1" xmlns="http://www.w3.org/2000/svg" p-id="1802" width="18" height="18"><path d="M512 81.92A430.08 430.08 0 1 1 81.92 512 430.08 430.08 0 0 1 512 81.92m0-81.92a512 512 0 1 0 512 512A512 512 0 0 0 512 0z" p-id="1803" fill="#515151"></path><path d="M0 495.616h163.84v32.768H0zM860.16 495.616h163.84v32.768h-163.84zM495.616 860.16h32.768v163.84h-32.768zM495.616 0h32.768v163.84h-32.768z" p-id="1804" fill="#515151"></path><path d="M512 512m-40.96 0a40.96 40.96 0 1 0 81.92 0 40.96 40.96 0 1 0-81.92 0Z" p-id="1805" fill="#515151"></path><path d="M505.6512 209.7152L477.184 505.0368a6.3488 6.3488 0 0 0 6.3488 6.9632h56.9344a6.3488 6.3488 0 0 0 6.3488-6.9632l-28.4672-295.3216a6.3488 6.3488 0 0 0-12.6976 0z" p-id="1806" fill="#515151"></path></svg>