<?xml version="1.0" standalone="no"?><!DOCTYPE svg PUBLIC "-//W3C//DTD SVG 1.1//EN" "http://www.w3.org/Graphics/SVG/1.1/DTD/svg11.dtd"><svg t="1585751317843" class="icon" viewBox="0 0 1024 1024" version="1.1" xmlns="http://www.w3.org/2000/svg" p-id="11133" xmlns:xlink="http://www.w3.org/1999/xlink" width="13" height="13"><defs><style type="text/css"></style></defs><path d="M324.266667 307.2a17.066667 17.066667 0 0 0-17.066667-17.066667c-38.6048 0-58.811733-4.5056-69.8368-15.496533S221.866667 243.4048 221.866667 204.8a17.066667 17.066667 0 0 0-34.133334 0c0 38.6048-4.5056 58.811733-15.496533 69.8368C161.245867 285.696 141.0048 290.133333 102.4 290.133333a17.066667 17.066667 0 0 0 0 34.133334c38.6048 0 58.811733 4.5056 69.8368 15.496533 11.025067 10.990933 15.496533 31.266133 15.496533 69.8368a17.066667 17.066667 0 0 0 34.133334 0c0-38.6048 4.5056-58.811733 15.496533-69.8368C248.354133 328.738133 268.5952 324.266667 307.2 324.266667a17.066667 17.066667 0 0 0 17.066667-17.066667z m-111.035734 8.430933a66.901333 66.901333 0 0 0-8.430933 10.24A70.7584 70.7584 0 0 0 186.1632 307.2 68.334933 68.334933 0 0 0 204.8 288.597333 70.485333 70.485333 0 0 0 223.4368 307.2a75.229867 75.229867 0 0 0-10.205867 8.430933zM902.997333 17.066667H121.0368A104.2432 104.2432 0 0 0 17.1008 121.378133v561.152L17.066667 682.666667l0.034133 0.170666v49.117867A104.2432 104.2432 0 0 0 121.0368 836.266667H460.8v68.266666H292.5568C234.769067 904.533333 187.733333 942.830933 187.733333 989.866667a17.066667 17.066667 0 0 0 17.066667 17.066666h614.4a17.066667 17.066667 0 0 0 17.066667-17.066666c0-47.035733-47.035733-85.333333-104.8576-85.333334H563.2v-68.266666h339.797333a104.2432 104.2432 0 0 0 103.936-104.277334V121.412267A104.277333 104.277333 0 0 0 902.997333 17.066667z m-171.554133 921.6c30.72 0 56.9344 14.267733 66.6624 34.133333H225.8944c9.728-19.8656 35.9424-34.133333 66.696533-34.133333h438.852267z m-236.509867-34.133334v-68.266666h34.133334v68.266666h-34.133334z m477.866667-172.544a70.109867 70.109867 0 0 1-69.802667 70.212267h-356.693333L546.133333 802.167467h-68.266666l-0.170667 0.034133H121.002667A70.075733 70.075733 0 0 1 51.2 732.023467V699.733333h921.6v32.256z m0-66.389333h-921.6V121.412267c0-38.741333 31.300267-70.212267 69.802667-70.212267h781.994666c38.5024 0 69.802667 31.470933 69.802667 70.144V665.6zM921.6 187.733333c-38.6048 0-58.811733-4.5056-69.8368-15.496533S836.266667 141.0048 836.266667 102.4a17.066667 17.066667 0 0 0-34.133334 0c0 38.6048-4.5056 58.811733-15.496533 69.8368-10.990933 11.0592-31.232 15.496533-69.8368 15.496533a17.066667 17.066667 0 0 0 0 34.133334c38.6048 0 58.811733 4.5056 69.8368 15.496533 11.025067 10.990933 15.496533 31.266133 15.496533 69.8368a17.066667 17.066667 0 0 0 34.133334 0c0-38.6048 4.5056-58.811733 15.496533-69.8368 10.990933-11.025067 31.232-15.496533 69.8368-15.496533a17.066667 17.066667 0 0 0 0-34.133334z m-93.969067 25.4976a66.901333 66.901333 0 0 0-8.430933 10.24A70.485333 70.485333 0 0 0 800.5632 204.8 70.485333 70.485333 0 0 0 819.2 186.197333a70.485333 70.485333 0 0 0 18.6368 18.602667 75.229867 75.229867 0 0 0-10.205867 8.430933z m-164.283733 85.538134a17.066667 17.066667 0 1 0-29.627733 16.930133l63.419733 111.0016-63.419733 111.0016a17.066667 17.066667 0 1 0 29.627733 16.896l68.266667-119.466667a17.032533 17.032533 0 0 0 0-16.930133l-68.266667-119.432533zM326.8608 426.666667l63.3856-111.0016a17.066667 17.066667 0 1 0-29.627733-16.930134l-68.266667 119.466667a17.032533 17.032533 0 0 0 0 16.930133l68.266667 119.466667a16.9984 16.9984 0 0 0 23.313066 6.3488 17.066667 17.066667 0 0 0 6.3488-23.278933L326.8608 426.666667z m241.2544-187.016534a17.032533 17.032533 0 0 0-21.265067 11.434667l-102.4 341.333333a17.066667 17.066667 0 1 0 32.699734 9.8304l102.4-341.333333a17.066667 17.066667 0 0 0-11.434667-21.265067z" p-id="11134" fill="#515151"></path></svg>