<?xml version="1.0" standalone="no"?><!DOCTYPE svg PUBLIC "-//W3C//DTD SVG 1.1//EN" "http://www.w3.org/Graphics/SVG/1.1/DTD/svg11.dtd"><svg t="1585728084313" class="icon" viewBox="0 0 1024 1024" version="1.1" xmlns="http://www.w3.org/2000/svg" p-id="5825" width="16" height="16" xmlns:xlink="http://www.w3.org/1999/xlink"><defs><style type="text/css"></style></defs><path d="M363.1 373c-70.4 0-127.6 57.3-127.6 127.6s57.3 127.6 127.6 127.6c70.4 0 127.6-57.3 127.6-127.6S433.4 373 363.1 373z m0 206.2c-43.3 0-78.5-35.2-78.5-78.5s35.2-78.5 78.5-78.5 78.5 35.2 78.5 78.5c0 43.2-35.2 78.5-78.5 78.5z" p-id="5826" fill="#000000"></path><path d="M627.4 611.5h3c24.2 0 44.1-19.1 49.5-47.6 0.1-0.3 6.7-35.2 6.7-63 0-26.8-6-59.3-6.7-62.9-5.4-28.6-25.2-47.6-49.5-47.6H627.3c-29.2 0-52.9-23.7-52.9-52.9 0-7.1 3.4-16.6 4.7-19.8 11.2-25.4 2.5-56.4-20.2-72.2l-0.7-0.5c-0.7-0.5-1.5-1-2.3-1.4l-74.3-41.3c-0.7-0.4-1.4-0.7-2.1-1.1l-0.9-0.4c-7.5-3.3-15.7-4.9-24.2-4.9-17.1 0-34.1 7-45.4 18.8-10.6 11-32.2 26.3-43.2 26.3-11.1 0-32.8-15.6-43.5-26.7-11.4-12-28.5-19.2-45.8-19.2-8.4 0-16.4 1.6-23.7 4.7l-1 0.4c-0.7 0.3-1.4 0.7-2 1l-77 42.3c-0.8 0.4-1.6 0.9-2.2 1.4l-0.8 0.5c-22.8 15.8-31.5 46.9-20.3 72.3 1.5 3.5 4.7 13.2 4.7 19.8 0 29.2-23.7 52.9-52.9 52.9h-3c-24.2 0-44.1 19.2-49.5 47.7-0.7 3.6-6.7 36.1-6.7 62.9 0 26.8 6 59.3 6.7 62.9 5.4 28.5 25.3 47.6 49.5 47.6H101.4c29.2 0 52.9 23.7 52.9 52.9 0 7.1-3.4 16.7-4.7 19.8-11.1 25.3-2.5 56.4 20.2 72.2l0.8 0.5c0.6 0.4 1.2 0.8 1.9 1.2l73.2 40.9c0.7 0.4 1.4 0.7 2 1l0.8 0.3c7.5 3.3 15.7 5 24.2 5 17.5 0 34.7-7.4 46-19.7 10.2-11.1 33.1-27.9 44.2-27.9 11.4 0 33.6 16.6 44.5 28.5 11.4 12.5 28.7 20 46.3 20.1 8.4 0 16.4-1.6 23.8-4.8l0.7-0.3c0.7-0.3 1.5-0.7 2.2-1.1l75.7-41.8c0.7-0.4 1.3-0.8 2-1.2l0.9-0.6c22.7-15.8 31.5-46.9 20.3-72.2-1.3-3.1-4.7-12.7-4.7-19.9-0.1-29.1 23.6-52.9 52.8-52.9zM533.9 703l0.4 1c1.7 3.9 0.2 9.5-3.2 12l-73.5 40.6c-1.2 0.5-2.5 0.7-4.1 0.7-4 0-7.8-1.5-10-4-6.1-6.7-17.3-17-30.1-25.8-18.2-12.4-35.3-18.8-50.7-18.8-39.5 0-79.9 43.3-80.3 43.8-2.1 2.3-6.1 3.8-9.9 3.8-1.6 0-3-0.2-4.2-0.7L197.5 716c-3.4-2.6-4.9-8.2-3.2-12.1l0.1-0.2c1.5-3.4 8.8-21.3 8.8-39.4 0-56.2-45.7-102-102-102H100c-0.8-1.1-2.1-3.5-2.9-7.7-0.2-1.3-5.8-31.1-5.8-53.8 0-22.9 5.7-53.5 5.8-53.8 0.8-4.2 2.1-6.6 2.9-7.7h1.4c56.2 0 102-45.7 102-101.9 0-18.8-7.9-37.5-8.9-39.6-1.7-3.9-0.2-9.4 3.2-12l74.8-41.1c1.2-0.5 2.6-0.7 4.2-0.7 3.9 0 8.1 1.6 10.3 3.9 6.1 6.4 17 16.1 29.6 24.3 17.8 11.7 34.5 17.6 49.5 17.6 14.9 0 31.4-5.8 49.1-17.3 12.5-8.1 23.4-17.7 29.5-24 2.1-2.2 6.3-3.8 10.1-3.8 1.6 0 3.1 0.2 4.3 0.7l72.2 40.1c3.4 2.6 4.9 8.2 3.2 12-0.4 0.8-8.9 20-8.9 39.6 0 56.2 45.7 101.9 101.9 101.9h1.4c0.8 1.1 2.1 3.5 2.9 7.7 0.1 0.3 5.8 30.9 5.8 53.8 0 22.5-5.6 52.5-5.8 53.8-0.8 4.2-2.1 6.6-2.9 7.7h-1.4c-56.2 0-102 45.7-102 102-0.1 17.6 6.7 34.9 8.4 39zM801.5 318.7c20.3 0 39.3-7.9 53.6-22.2 14.3-14.3 22.2-33.3 22.2-53.6 0-20.3-7.9-39.3-22.2-53.6-14.3-14.3-33.3-22.2-53.6-22.2-20.3 0-39.3 7.9-53.6 22.2-14.3 14.3-22.2 33.3-22.2 53.6s7.9 39.3 22.2 53.6c14.3 14.3 33.4 22.2 53.6 22.2z m-36.3-75.8c0-9.7 3.8-18.8 10.6-25.7 7.1-7.1 16.4-10.6 25.7-10.6s18.6 3.5 25.7 10.6c6.8 6.8 10.6 16 10.6 25.7s-3.8 18.8-10.6 25.7-16 10.6-25.7 10.6-18.8-3.8-25.7-10.6-10.6-16-10.6-25.7z" p-id="5827" fill="#000000"></path><path d="M622.6 268.5c0.1 0.6 0.2 1.1 0.4 1.7l12.4 44c0.2 0.6 0.4 1.2 0.6 1.7l0.2 0.5c1.9 5 4.9 9.5 8.8 13.4 8 8 19.2 12.4 30.1 12 8-0.3 20.3 2 22.9 4.3 2.2 2.5 4.7 14.2 4.3 23.3-0.5 11 3.9 22.3 12 30.4l0.7 0.7 0.1 0.1c3.7 3.5 7.8 6.1 12.4 8l0.4 0.1c0.6 0.3 1.3 0.5 1.9 0.6l45.2 13c0.6 0.2 1.2 0.3 1.8 0.4l0.7 0.1c2.2 0.4 4.3 0.6 6.5 0.6 15.6 0 30.4-9.7 36.1-24.4 0.8-2 2.8-5.7 4.4-7.3 4.2-4.2 9.8-6.5 15.8-6.5s11.6 2.3 15.8 6.5l1.2 1.2c11.6 11.6 29.8 12.1 45.5 1.5 0.7-0.5 16.7-11.4 27.7-22.4 10.5-10.5 20.5-24.9 22.4-27.7 10.8-15.9 10.1-34.2-1.8-45.8l-0.9-0.9c-8.7-8.7-8.7-22.9 0-31.6 1.6-1.6 5.3-3.6 7.3-4.4 16.8-6.6 27.1-24.9 23.9-42.6l-0.1-0.4c-0.1-0.7-0.3-1.4-0.5-2.1L968 172.1l-0.6-1.8-0.2-0.5c-2-5-4.9-9.5-8.8-13.4-7.6-7.6-18.3-12.1-28.7-12.1h-0.7c-7.9 0.1-19.5-2.3-22.1-4.6-2.4-2.6-4.8-14.4-4.6-22.4 0.3-10.7-4.3-21.8-12.1-29.7-3.8-3.8-8.2-6.8-13-8.7l-0.7-0.3c-0.6-0.2-1.1-0.4-1.7-0.6L829 64.7c-0.7-0.2-1.4-0.4-2.1-0.5l-0.5-0.1c-17.8-3.2-36.1 7.1-42.7 23.9-0.7 1.7-2.8 5.6-4.4 7.3-8.7 8.7-22.9 8.7-31.6 0l-1.2-1.2C735 82.6 716.7 82 701 92.7c-2.8 1.9-17.2 11.9-27.7 22.4-10.7 10.7-21.2 26-22.4 27.7-10.7 15.6-10.1 33.9 1.5 45.5l0.3 0.3 0.9 0.9c4.2 4.2 6.5 9.8 6.5 15.8s-2.3 11.6-6.5 15.8c-1.6 1.6-5.3 3.6-7.3 4.4-16.8 6.6-27.1 24.8-23.9 42.6l0.2 0.4z m141-127.2c16.5 0 32.1-6.4 43.7-18.1 7.2-7.2 11.5-16.6 12.9-20l42.2 12.3c0.3 0.3 0.5 0.7 0.5 0.9-0.1 2.7 0 11.5 2.2 22 2.6 12.6 7.3 22.4 14 29 6.6 6.6 16.3 11.3 28.7 13.9 10.3 2.2 19 2.3 21.8 2.3 0.2 0.1 0.6 0.3 0.9 0.5l11.7 40.9c-3.1 1.3-12.7 5.6-20 12.9-23.2 23.2-24.1 60.5-2.6 84.7-3 4.3-10.6 14.6-17.2 21.2-7.2 7.2-18.2 15.1-21.2 17.2-11.3-10-25.7-15.5-41-15.5-16.5 0-32.1 6.4-43.7 18.1-7.3 7.3-11.7 17-12.9 20l-41.5-12c-0.2-0.2-0.3-0.5-0.4-0.6 0.1-2.7 0.3-11.9-1.7-22.8-2.4-13.1-7.2-23.2-14.1-30.1-16.6-16.6-48.9-16-52.3-15.9-0.2-0.1-0.5-0.2-0.7-0.4l-11.4-40.2c3.1-1.3 12.8-5.7 20-12.9 11.7-11.7 18.1-27.2 18.1-43.7 0-15.3-5.5-29.7-15.5-41 2.1-3 10-14.1 17.2-21.2 6.6-6.6 16.9-14.2 21.2-17.2 11.4 10.3 25.8 15.7 41.1 15.7zM943 224.9zM981.2 755.6c-0.1-0.7-0.3-1.4-0.5-2.1L968 709c-0.2-0.6-0.4-1.1-0.6-1.8l-0.2-0.5c-2-5-4.9-9.5-8.8-13.4-7.8-7.8-18.8-12.3-29.3-12.1-8 0.1-19.5-2.3-22.1-4.6-2.4-2.6-4.8-14.4-4.6-22.4 0.3-10.7-4.3-21.8-12.1-29.7-3.8-3.8-8.2-6.8-13-8.7l-0.7-0.3c-0.6-0.2-1.1-0.4-1.7-0.6L829 601.7c-0.7-0.2-1.4-0.4-2-0.5l-0.5-0.1c-17.8-3.2-36.1 7.1-42.7 23.9-0.7 1.7-2.8 5.6-4.4 7.2-8.7 8.7-22.9 8.7-31.6 0l-1.2-1.2c-11.5-11.5-29.8-12.1-45.5-1.4-2.8 1.9-17.2 11.9-27.7 22.4-10.8 10.8-21.2 26-22.4 27.7-10.7 15.6-10.1 33.9 1.5 45.5l0.3 0.3 0.9 0.9c4.2 4.2 6.5 9.8 6.5 15.8s-2.3 11.6-6.5 15.8c-1.6 1.6-5.3 3.6-7.3 4.4-16.8 6.6-27.1 24.8-23.9 42.6l0.1 0.5c0.1 0.6 0.2 1.1 0.4 1.7l12.4 44c0.2 0.6 0.4 1.2 0.6 1.7l0.2 0.5c1.9 5 4.9 9.5 8.8 13.4 8 8 19.2 12.4 30.1 12 8-0.3 20.3 2 22.9 4.3 2.2 2.5 4.7 14.2 4.3 23.3-0.5 11 3.9 22.3 12 30.4l1.6 1.6 0.2 0.1c3.4 3 7.2 5.4 11.4 7l0.4 0.1c0.6 0.3 1.3 0.5 1.9 0.6l45.2 13h0.1c0.6 0.2 1.1 0.3 1.7 0.4l0.7 0.1c2.2 0.4 4.3 0.6 6.5 0.6 15.6 0 30.4-9.7 36.1-24.4 0.8-2 2.8-5.7 4.4-7.3 8.7-8.7 22.9-8.7 31.6 0l1.2 1.2c11.6 11.6 29.8 12.1 45.5 1.5 1.7-1.2 17-11.7 27.7-22.4 10.5-10.5 20.5-24.9 22.4-27.7 10.8-15.9 10.1-34.2-1.8-45.8l-0.9-0.9c-8.7-8.7-8.7-22.9 0-31.6 1.6-1.6 5.3-3.6 7.3-4.4 16.8-6.6 27.1-24.9 23.9-42.6l-0.2-0.3zM796.5 900.7c-7.3 7.3-11.7 17-12.9 20l-41.5-12c-0.2-0.2-0.3-0.5-0.4-0.6 0.1-2.7 0.3-11.9-1.7-22.8-2.4-13.1-7.2-23.2-14.1-30.1-16.6-16.6-48.9-16-52.3-15.9-0.2-0.1-0.5-0.2-0.7-0.4l-11.4-40.2c3.1-1.3 12.8-5.7 20-12.9 11.7-11.7 18.1-27.2 18.1-43.7 0-15.3-5.5-29.7-15.5-41 3.5-5 10.9-14.9 17.2-21.2 6.6-6.6 16.9-14.2 21.2-17.2 11.3 10 25.7 15.5 41 15.5 16.5 0 32.1-6.4 43.7-18.1 7.2-7.2 11.5-16.6 12.9-20l42.2 12.3c0.3 0.3 0.5 0.7 0.5 0.9-0.1 2.7 0 11.5 2.2 22 2.6 12.6 7.3 22.4 14 29 6.6 6.6 16.3 11.3 28.7 13.9 10.3 2.2 19 2.3 21.8 2.3 0.2 0.1 0.6 0.3 0.9 0.5l11.7 40.9c-3.1 1.3-12.7 5.6-20 12.9-23.2 23.2-24.1 60.5-2.6 84.7-3 4.3-10.6 14.6-17.2 21.2-6.3 6.3-15.9 13.5-21.2 17.2-24.2-21.2-61.4-20.4-84.6 2.8zM943 761.8z" p-id="5828" fill="#000000"></path><path d="M801.5 704c-20.3 0-39.3 7.9-53.6 22.2-14.3 14.3-22.2 33.3-22.2 53.6 0 20.3 7.9 39.3 22.2 53.6 14.3 14.3 33.3 22.2 53.6 22.2 20.3 0 39.3-7.9 53.6-22.2 14.3-14.3 22.2-33.3 22.2-53.6 0-20.3-7.9-39.3-22.2-53.6-14.3-14.3-33.3-22.2-53.6-22.2z m25.7 101.5c-14.2 14.2-37.2 14.2-51.4 0-14.2-14.2-14.2-37.2 0-51.4 6.8-6.8 16-10.6 25.7-10.6s18.8 3.8 25.7 10.6c14.2 14.2 14.2 37.2 0 51.4z" p-id="5829" fill="#000000"></path></svg>