<?xml version="1.0" standalone="no"?><!DOCTYPE svg PUBLIC "-//W3C//DTD SVG 1.1//EN" "http://www.w3.org/Graphics/SVG/1.1/DTD/svg11.dtd"><svg t="1585751045177" class="icon" viewBox="0 0 1024 1024" version="1.1" xmlns="http://www.w3.org/2000/svg" p-id="9754" xmlns:xlink="http://www.w3.org/1999/xlink" width="16" height="18"><defs><style type="text/css"></style></defs><path d="M704 960H405.333c-12.8 0-21.333-8.533-21.333-21.333V789.333H277.333C264.533 789.333 256 780.8 256 768V616.533L170.667 576c-4.267-2.133-8.534-6.4-10.667-12.8-2.133-4.267-2.133-10.667 0-17.067l53.333-115.2v-6.4C213.333 224 362.667 61.867 544 61.867S874.667 224 874.667 424.533c0 121.6-55.467 236.8-149.334 302.934v209.066C725.333 951.467 716.8 960 704 960z m-277.333-42.667h256v-198.4c0-6.4 4.266-12.8 8.533-17.066l8.533-6.4c83.2-59.734 132.267-160 132.267-268.8 0-177.067-130.133-320-288-320s-288 142.933-288 320v10.666c0 4.267 0 6.4-2.133 8.534l-46.934 100.266 78.934 36.267c8.533 4.267 12.8 10.667 12.8 19.2v142.933h106.666c12.8 0 21.334 8.534 21.334 21.334v151.466z" p-id="9755" fill="#515151"></path><path d="M533.333 426.667c-46.933 0-85.333-38.4-85.333-85.334S486.4 256 533.333 256s85.334 38.4 85.334 85.333-38.4 85.334-85.334 85.334z m0-128c-23.466 0-42.666 19.2-42.666 42.666S509.867 384 533.333 384 576 364.8 576 341.333s-19.2-42.666-42.667-42.666z" p-id="9756" fill="#515151"></path><path d="M682.667 298.667H652.8c-2.133-4.267-4.267-8.534-4.267-12.8l21.334-21.334c8.533-8.533 8.533-21.333 0-29.866L640 204.8c-8.533-8.533-21.333-8.533-29.867 0L588.8 226.133c-4.267-2.133-8.533-4.266-12.8-4.266V192c0-12.8-8.533-21.333-21.333-21.333H512c-12.8 0-21.333 8.533-21.333 21.333v29.867c-4.267 2.133-8.534 4.266-12.8 4.266L456.533 204.8c-8.533-8.533-21.333-8.533-29.866 0L396.8 234.667c-8.533 8.533-8.533 21.333 0 29.866l21.333 21.334c-2.133 4.266-4.266 8.533-4.266 12.8H384c-12.8 0-21.333 8.533-21.333 21.333v42.667c0 12.8 8.533 21.333 21.333 21.333h29.867c2.133 4.267 4.266 8.533 4.266 12.8L396.8 418.133c-8.533 8.534-8.533 21.334 0 29.867l29.867 29.867c8.533 8.533 21.333 8.533 29.866 0l21.334-21.334c4.266 2.134 8.533 4.267 12.8 4.267v29.867c0 12.8 8.533 21.333 21.333 21.333h42.667c12.8 0 21.333-8.533 21.333-21.333V460.8c4.267-2.133 8.533-4.267 12.8-4.267l21.333 21.334c8.534 8.533 21.334 8.533 29.867 0L669.867 448c8.533-8.533 8.533-21.333 0-29.867L648.533 396.8c2.134-4.267 4.267-8.533 4.267-12.8h29.867c12.8 0 21.333-8.533 21.333-21.333V320c0-12.8-8.533-21.333-21.333-21.333z m-149.334 128c-46.933 0-85.333-38.4-85.333-85.334S486.4 256 533.333 256s85.334 38.4 85.334 85.333-38.4 85.334-85.334 85.334zM661.333 554.667c-23.466 0-42.666-19.2-42.666-42.667s19.2-42.667 42.666-42.667S704 488.533 704 512s-19.2 42.667-42.667 42.667z m0-64C648.533 490.667 640 499.2 640 512s8.533 21.333 21.333 21.333S682.667 524.8 682.667 512s-8.534-21.333-21.334-21.333z" p-id="9757" fill="#515151"></path><path d="M738.133 507.733l-14.933-4.266c0-4.267-2.133-8.534-2.133-12.8l10.666-8.534c4.267-4.266 4.267-10.666 2.134-14.933l-12.8-17.067c-4.267-4.266-10.667-4.266-14.934-2.133l-10.666 8.533-12.8-6.4V435.2c0-6.4-4.267-10.667-10.667-10.667h-21.333c-6.4 0-10.667 4.267-10.667 10.667v14.933l-12.8 6.4L616.533 448c-4.266-4.267-10.666-2.133-14.933 2.133L588.8 467.2c-4.267 4.267-2.133 10.667 2.133 14.933l10.667 8.534c-2.133 4.266-2.133 8.533-2.133 12.8l-14.934 4.266c-6.4 2.134-8.533 6.4-8.533 12.8l4.267 21.334c2.133 6.4 6.4 8.533 12.8 8.533L608 546.133c2.133 4.267 4.267 8.534 8.533 10.667l-6.4 12.8c-2.133 4.267 0 10.667 4.267 14.933l19.2 8.534c4.267 2.133 10.667 0 14.933-4.267l6.4-12.8h12.8l6.4 12.8c2.134 4.267 8.534 8.533 14.934 4.267l19.2-8.534c4.266-2.133 8.533-8.533 4.266-14.933l-6.4-12.8c4.267-4.267 6.4-6.4 8.534-10.667L729.6 550.4c6.4 2.133 10.667-2.133 12.8-8.533l4.267-21.334c2.133-6.4-2.134-10.666-8.534-12.8zM618.667 512c0-23.467 19.2-42.667 42.666-42.667S704 488.533 704 512s-19.2 42.667-42.667 42.667-42.666-19.2-42.666-42.667z" p-id="9758" fill="#515151"></path></svg>