<svg t="1587781846544" class="icon" viewBox="0 0 1024 1024" version="1.1" xmlns="http://www.w3.org/2000/svg" p-id="29655" width="18" height="18"><path d="M331.29 542.12h120.47v60.24H331.29zM150.59 180.71h120.47v60.24H150.59zM331.29 180.71h120.47v60.24H331.29zM331.29 361.41h120.47v60.24H331.29zM150.59 361.41h120.47v60.24H150.59zM753.06 542.12h120.47v60.24H753.06zM753.06 722.82h120.47v60.24H753.06zM150.59 542.12h120.47v60.24H150.59z" p-id="29656" fill="#2c2c2c"></path><path d="M998 972h-4.58a60.53 60.53 0 0 0 0.58-8.24V361.41a60.28 60.28 0 0 0-60.24-60.24H692.82a60.21 60.21 0 0 0-60.24 60.24v602.35a60.53 60.53 0 0 0 0.58 8.24h-61.5a60.53 60.53 0 0 0 0.58-8.24V60.24A60.28 60.28 0 0 0 512 0H90.35a60.28 60.28 0 0 0-60.23 60.24v903.52a60.53 60.53 0 0 0 0.58 8.24H26a26 26 0 0 0 0 52h972a26 26 0 0 0 0-52zM689.59 383.12a29.77 29.77 0 0 1 29.77-29.77h187.85A29.77 29.77 0 0 1 937 383.12v588.71H689.59zM86.67 82.11a29.77 29.77 0 0 1 29.77-29.77h369.47a29.77 29.77 0 0 1 29.77 29.77v889.56h-429z" p-id="29657" fill="#2c2c2c"></path></svg>