<svg t="1587647958972" class="icon" viewBox="0 0 1408 1024" version="1.1" xmlns="http://www.w3.org/2000/svg" p-id="1773" width="35" height="35"><path d="M659.898182 674.257455c-25.274182-6.283636-47.616 84.107636-86.528 71.028363-3.723636-1.349818-3.351273-0.930909-6.190546-3.072 11.915636-129.210182 64.651636-244.270545 89.6-370.827636h-6.190545c-51.758545 18.292364-129.070545 11.031273-179.2 30.906182v15.453091c74.705455-1.489455 55.249455 44.125091 40.168727 98.90909-18.664727 67.816727-52.782545 152.436364-58.693818 213.271273-5.911273 60.741818 31.697455 83.642182 67.956364 83.409455 51.386182-0.232727 94.72-50.641455 117.434181-80.337455 5.771636-7.586909 46.917818-52.456727 21.643637-58.740363zM630.714182 180.177455a63.301818 63.301818 0 1 0 0 126.510545 63.301818 63.301818 0 0 0 0-126.510545zM573.090909 0c-282.344727 0-512 229.701818-512 512s229.655273 512 512 512c282.298182 0 512-229.655273 512-512 0-282.298182-229.701818-512-512-512z m0 976.384c-256.046545 0-464.337455-208.337455-464.337454-464.384S317.044364 47.616 573.090909 47.616s464.384 208.337455 464.384 464.384-208.337455 464.384-464.384 464.384z" fill="#5C5D5D" p-id="1774"></path></svg>