<svg t="1587651938546" class="icon" viewBox="0 0 1024 1024" version="1.1" xmlns="http://www.w3.org/2000/svg" p-id="4494" width="18" height="18"><path d="M731.396241 451.762779c0 21.915468 14.610312 36.52578 36.52578 36.52578s36.52578-14.610312 36.52578-36.52578c0-119.317548-97.40208-216.719628-216.719628-216.719628-21.915468 0-36.52578 14.610312-36.52578 36.52578s14.610312 36.52578 36.52578 36.52578c80.356716 0 143.668068 65.746404 143.668068 143.668068z m146.10312 0c0 21.915468 14.610312 36.52578 36.52578 36.52578s36.52578-14.610312 36.52578-36.52578c0-197.239212-160.713432-360.387696-360.387696-360.387696-21.915468 0-36.52578 14.610312-36.52578 36.52578s14.610312 36.52578 36.52578 36.52578C746.006553 164.426643 877.499361 293.484399 877.499361 451.762779z m-487.010401-126.622704c38.960832-38.960832 43.830936-99.837132 7.305156-143.668068l-112.012392-141.233016C249.255944-6.026997 181.074488-13.332153 134.8085 23.193627c-2.435052 4.870104-7.305156 4.870104-7.305156 7.305156l-97.40208 97.40208C-62.430712 220.432839 69.062096 473.678247 310.132244 714.748396c241.070148 241.070148 489.445453 370.127904 581.977429 280.03098l97.40208-97.40208c43.830936-43.830936 43.830936-112.012392 0-150.973224l-7.305156-7.305156-141.233016-112.012392c-43.830936-36.52578-104.707236-31.655676-143.668068 7.305156l-60.8763 60.8763c-65.746404-38.960832-121.7526-82.791768-172.888692-133.927861-48.70104-48.70104-90.096924-104.707236-131.492809-170.45364l58.441248-65.746404z m-51.136092-94.967028c9.740208 14.610312 9.740208 36.52578-2.435052 46.265988l-80.356716 82.791768c-12.17526 12.17526-14.610312 29.220624-7.305156 43.830936 41.395884 77.921664 94.967028 148.538172 158.27838 211.849525 63.311352 63.311352 133.92786 116.882496 211.849525 158.27838 14.610312 7.305156 31.655676 4.870104 43.830936-7.305156l82.791768-82.791768c14.610312-14.610312 31.655676-14.610312 46.265988-2.435052l141.233016 114.447444s2.435052 0 2.435052 2.435052c14.610312 12.17526 14.610312 34.090728 2.435052 48.70104l-2.435052 2.435052-97.40208 97.40208c-46.265988 46.265988-270.290772-73.05156-482.140297-280.03098C146.98376 456.632883 30.101264 230.173047 78.802304 181.472007l99.837132-99.837132c14.610312-9.740208 38.960832-9.740208 51.136092 7.305156l109.57734 141.233016z" p-id="4495"></path></svg>