<svg t="1587735737213" class="icon" viewBox="0 0 1024 1024" version="1.1" xmlns="http://www.w3.org/2000/svg" p-id="19355" width="20" height="20"><path d="M989.09 907.636h-34.908v-537.6c0-30.254-25.6-55.854-58.182-55.854H763.345v-39.564c0-6.982 0-25.6-102.4-121.018-104.727-97.745-128-97.745-137.309-97.745-9.309 0-32.581 0-141.963 95.418C274.618 246.69 274.618 262.982 274.618 272.29v39.564h-128c-32.582 0-58.182 25.6-58.182 55.854v539.927h-51.2c-13.963 0-25.6 11.637-25.6 25.6 0 13.964 11.637 25.6 25.6 25.6l954.182-2.327c13.964 0 25.6-11.636 25.6-25.6s-13.963-23.273-27.927-23.273z m-95.417-542.254c4.654 0 6.982 2.327 6.982 4.654v537.6H761.018V365.382h132.655zM414.255 190.836c58.181-51.2 93.09-76.8 107.054-81.454C553.891 123.345 691.2 249.018 712.145 281.6v626.036h-44.218v-179.2c0-55.854-46.545-100.072-104.727-100.072h-86.11c-58.18 0-104.726 44.218-104.726 100.072v179.2h-51.2V281.6c9.309-11.636 44.218-48.873 93.09-90.764z m202.472 716.8h-195.49V726.11c0-27.927 25.6-48.873 55.854-48.873H563.2c30.255 0 55.855 20.946 55.855 48.873v181.527z m-479.418-537.6c0-2.327 2.327-4.654 6.982-4.654h125.673v542.254H134.982v-537.6z" p-id="19356" fill="#000000"></path><path d="M397.964 463.127h225.745c13.964 0 25.6-11.636 25.6-25.6 0-13.963-11.636-25.6-25.6-25.6H397.964c-13.964 0-25.6 11.637-25.6 25.6 2.327 13.964 11.636 25.6 25.6 25.6z m0 95.418h225.745c13.964 0 25.6-11.636 25.6-25.6s-11.636-25.6-25.6-25.6H397.964c-13.964 0-25.6 11.637-25.6 25.6s11.636 25.6 25.6 25.6z m0-193.163h225.745c13.964 0 25.6-11.637 25.6-25.6s-11.636-25.6-25.6-25.6H397.964c-13.964 0-25.6 11.636-25.6 25.6s11.636 25.6 25.6 25.6z" p-id="19357" fill="#000000"></path></svg>