<svg t="1587718516106" class="icon" viewBox="0 0 1253 1024" version="1.1" xmlns="http://www.w3.org/2000/svg" p-id="13345" width="22" height="22"><path d="M78.076835 94.59528a23.933169 23.933169 0 0 0 11.966584 19.37447A25.642681 25.642681 0 0 0 113.976588 113.96975a23.933169 23.933169 0 0 0 0-39.888615 25.642681 25.642681 0 0 0-23.933169 0 23.933169 23.933169 0 0 0-11.966584 20.514145z m0 0M235.351944 94.59528a23.933169 23.933169 0 0 0 11.966584 19.37447 25.642681 25.642681 0 0 0 23.933169 0 23.933169 23.933169 0 0 0 0-41.02829 25.642681 25.642681 0 0 0-23.933169 0 23.933169 23.933169 0 0 0-11.966584 20.514145z m0 0M157.284226 94.59528A24.503006 24.503006 0 0 0 170.960323 113.96975a25.642681 25.642681 0 0 0 23.933169 0 23.933169 23.933169 0 0 0 0-41.02829 25.642681 25.642681 0 0 0-23.933169 1.139675 24.503006 24.503006 0 0 0-11.396747 20.514145z m0 0" fill="#000000" p-id="13346"></path><path d="M353.308275 436.497691l70.659832-70.659832A22.223657 22.223657 0 0 0 430.236318 341.90469a23.933169 23.933169 0 0 0-16.525283-16.525283 22.793494 22.793494 0 0 0-22.793494 6.268211L303.162588 420.542245a23.363331 23.363331 0 0 0 0 33.050566l87.754953 88.32479a25.642681 25.642681 0 0 0 16.525283 6.838048 24.503006 24.503006 0 0 0 16.525283-6.838048 22.793494 22.793494 0 0 0 0-33.620404z m337.91355 104.850072a23.363331 23.363331 0 0 0 33.050566 0L812.597181 455.872161a23.933169 23.933169 0 0 0 0-33.620404l-88.32479-88.894627a23.363331 23.363331 0 0 0-33.050566 0 23.933169 23.933169 0 0 0 0 33.620404l70.659831 70.659831-70.659831 70.659832a23.363331 23.363331 0 0 0 0 33.050566zM613.154108 341.90469a22.793494 22.793494 0 0 0-18.234796 0 23.363331 23.363331 0 0 0-14.245933 10.82691L493.488264 501.459149a25.072843 25.072843 0 0 0 0 24.503006 23.363331 23.363331 0 0 0 19.37447 11.966584 23.933169 23.933169 0 0 0 20.514144-12.536422l87.754953-152.146572a23.933169 23.933169 0 0 0 0-18.804633 22.223657 22.223657 0 0 0-11.396747-14.245934z m0 0" fill="#000000" p-id="13347"></path><path d="M1196.667556 666.711981a6.838048 6.838048 0 0 1-6.268211-4.558699 248.449085 248.449085 0 0 0-39.318778-68.380482 6.268211 6.268211 0 0 1 0-7.407886A56.983735 56.983735 0 0 0 1133.41561 512.855896l-17.664958-10.82691V71.231948A70.089994 70.089994 0 0 0 1045.09082 0.002279H70.668949A70.089994 70.089994 0 0 0 0.009117 71.231948v597.189545a56.983735 56.983735 0 0 0 56.983736 56.983735h320.248591l-23.933169 85.475603h-31.341054a102.000886 102.000886 0 0 0-99.151699 78.637554h-56.983735a23.363331 23.363331 0 0 0 0 46.726663h599.468893a87.185115 87.185115 0 0 0 0 17.09512 56.983735 56.983735 0 0 0 25.072844 33.050567l50.145687 28.491867a51.855199 51.855199 0 0 0 41.028289 5.128537 56.983735 56.983735 0 0 0 33.050567-25.072844 6.838048 6.838048 0 0 1 7.407885-3.419024 224.515916 224.515916 0 0 0 78.067717 0 7.977723 7.977723 0 0 1 7.407886 3.419024 53.564711 53.564711 0 0 0 46.726663 27.352193 56.983735 56.983735 0 0 0 27.352193-7.407886l49.575849-28.491867a56.983735 56.983735 0 0 0 25.642681-33.050567 56.983735 56.983735 0 0 0-5.698374-41.028289 6.838048 6.838048 0 0 1 0-7.977723 239.901525 239.901525 0 0 0 39.318778-68.380482 6.268211 6.268211 0 0 1 6.268211-3.988861 56.983735 56.983735 0 0 0 56.983735-56.983736v-56.983735a56.983735 56.983735 0 0 0-56.983735-51.285361zM46.73578 71.231948a23.933169 23.933169 0 0 1 23.933169-23.933168h974.421871a23.363331 23.363331 0 0 1 23.363331 23.933168v70.659832H46.73578zM56.992853 676.399216a7.977723 7.977723 0 0 1-7.977723-7.977723V189.18828h1019.439021v288.907537a53.564711 53.564711 0 0 0-56.983735 23.363332 7.977723 7.977723 0 0 1-7.407885 3.419024 224.515916 224.515916 0 0 0-78.067717 0 5.698374 5.698374 0 0 1-6.838049-3.419024 56.983735 56.983735 0 0 0-33.050566-25.072844 51.285362 51.285362 0 0 0-41.028289 5.698374l-50.145687 28.491867a51.285362 51.285362 0 0 0-25.072844 33.050567 56.983735 56.983735 0 0 0 5.128536 41.028289 6.838048 6.838048 0 0 1 0 7.977723 237.052338 237.052338 0 0 0-39.318777 67.810645 6.838048 6.838048 0 0 1-6.268211 4.558699 56.983735 56.983735 0 0 0-31.910891 10.826909z m626.821086 134.481615H398.895263l23.363332-87.185115h247.879248v53.564711a56.983735 56.983735 0 0 0 11.966584 33.620404z m-361.276881 47.2965H740.797674a351.019809 351.019809 0 0 0 18.804633 31.341054H272.391371a56.983735 56.983735 0 0 1 49.57585-31.341054z m883.817733-80.916904a7.407886 7.407886 0 0 1 0 5.128536 5.698374 5.698374 0 0 1-5.128537 0 56.983735 56.983735 0 0 0-50.715524 34.760078 192.605025 192.605025 0 0 1-31.341054 56.983736 56.983735 56.983735 0 0 0-5.128536 61.542434 7.977723 7.977723 0 0 1 0 5.128536 6.838048 6.838048 0 0 1-3.419025 4.558698l-49.006012 27.922031a7.977723 7.977723 0 0 1-5.128536 0 9.117398 9.117398 0 0 1-4.558699-3.419024 56.983735 56.983735 0 0 0-56.983735-26.212519 192.605025 192.605025 0 0 1-62.682109 0 56.983735 56.983735 0 0 0-56.983735 26.212519 7.407886 7.407886 0 0 1-9.687235 0l-49.575849-29.061705a6.268211 6.268211 0 0 1-3.419024-3.988862 9.687235 9.687235 0 0 1 0-5.698373 56.983735 56.983735 0 0 0-5.128537-60.972597 221.66673 221.66673 0 0 1-31.910891-56.983735 53.564711 53.564711 0 0 0-49.57585-33.620404 6.838048 6.838048 0 0 1-6.838048-7.407885v-56.983736a6.268211 6.268211 0 0 1 0-4.558698 6.838048 6.838048 0 0 1 5.128536 0 53.564711 53.564711 0 0 0 50.715524-34.760079 191.46535 191.46535 0 0 1 31.910892-56.983735 56.983735 56.983735 0 0 0 4.558699-60.972597 9.687235 9.687235 0 0 1 0-5.698373 6.268211 6.268211 0 0 1 3.419024-3.988862l49.57585-29.061704h3.988861a7.407886 7.407886 0 0 1 5.698374 3.419024 56.983735 56.983735 0 0 0 56.983735 26.212518 192.605025 192.605025 0 0 1 62.682108 0 56.983735 56.983735 0 0 0 56.983736-27.352193 9.117398 9.117398 0 0 1 4.558698-3.419024 5.698374 5.698374 0 0 1 5.128537 0l49.575849 28.491867a6.268211 6.268211 0 0 1 3.419024 3.988862 9.687235 9.687235 0 0 1 0 5.698373 53.564711 53.564711 0 0 0 5.128536 60.972597 204.001772 204.001772 0 0 1 31.341055 56.983735 56.983735 56.983735 0 0 0 50.145687 36.469591 6.838048 6.838048 0 0 1 7.407885 6.838048z m0 0" fill="#000000" p-id="13348"></path><path d="M962.464404 641.639137a107.129422 107.129422 0 1 0 107.129422 107.129422 107.129422 107.129422 0 0 0-107.129422-107.129422z m0 166.962344a56.983735 56.983735 0 1 1 59.832922-56.983735 56.983735 56.983735 0 0 1-59.832922 56.983735z m0 0" fill="#000000" p-id="13349"></path></svg>