<svg t="1587811919401" class="icon" viewBox="0 0 1170 1024" version="1.1" xmlns="http://www.w3.org/2000/svg" p-id="32128" width="25" height="25"><path d="M6.095238 0h1024v1024H6.095238z" fill="#2c2c2c" fill-opacity="0" p-id="32129"></path><path d="M475.428571 469.333333V341.333333h85.333334v128h128v85.333334h-128v128h-85.333334v-128H347.428571v-85.333334h128z m42.666667 469.333334C282.447238 938.666667 91.428571 747.648 91.428571 512S282.447238 85.333333 518.095238 85.333333s426.666667 191.018667 426.666667 426.666667-191.018667 426.666667-426.666667 426.666667z m0-85.333334a341.333333 341.333333 0 1 0 0-682.666666 341.333333 341.333333 0 0 0 0 682.666666z m247.168-737.834666L825.593905 55.168l149.333333 149.333333-60.330667 60.330667-149.333333-149.333333z m-554.666667-60.330667l60.330667 60.330667-149.333333 149.333333L61.263238 204.501333l149.333333-149.333333z" fill="#2c2c2c" p-id="32130"></path></svg>