<svg t="1587735004744" class="icon" viewBox="0 0 1391 1024" version="1.1" xmlns="http://www.w3.org/2000/svg" p-id="14477" width="22" height="22"><path d="M382.04858428 440.44498876c31.15468388 94.11764677 117.42919365 94.11764677 147.49455322 0a53.81263653 53.81263653 0 0 0 21.78649248-34.20479267c1.30718935-13.50762539 0-31.80827901-12.85403115-31.808279-3.05010879-43.57298497-27.45097998-81.48148154-81.48148154-81.48148154s-80.82788643 32.46187325-83.87799522 81.48148154c-13.50762539 0-15.25054482 18.30065362-12.85403027 31.808279a50.76252685 50.76252685 0 0 0 21.78649248 34.20479267z m516.33986924 161.00217862a18.08278857 18.08278857 0 0 0-25.05446631 0L645.22941172 830.20533798v-215.25054521A101.52505459 101.52505459 0 0 0 563.09433594 516.47984785l-34.85838779-7.40740782a80.82788643 80.82788643 0 0 1-145.09803956 0l-34.85838779 7.40740782a100.65359443 100.65359443 0 0 0-81.2636165 97.82135068v267.97385567a65.35947744 65.35947744 0 0 0 65.35947656 65.35947744 31.80827901 31.80827901 0 0 0 32.46187412 32.46187324h183.44226533a32.67973828 32.67973828 0 0 0 32.46187412-32.46187324 65.35947744 65.35947744 0 0 0 65.35947744-65.35947744v-1.96078448l252.72331084-253.37690596a17.2113293 17.2113293 0 0 0 0-25.70806054zM1104.70653565 80.75H242.6150331A181.04575166 181.04575166 0 0 0 62.00501065 261.79575165v491.93899805a179.30283223 179.30283223 0 0 0 107.8431372 165.79520684 43.57298497 43.57298497 0 0 0 59.9128541-38.5620917 30.93681885 30.93681885 0 0 0-21.78649247-29.41176445 104.57516338 104.57516338 0 0 1-69.7167756-97.82135069V261.79575165a103.7037041 103.7037041 0 0 1 102.61437979-103.92156826h862.74509766a103.26797402 103.26797402 0 0 1 103.48583906 103.48583819v492.37472812a104.1394333 104.1394333 0 0 1-102.83224394 103.92156827H760.69782177a38.5620917 38.5620917 0 1 0 0 77.12418339h344.00871388a181.04575166 181.04575166 0 0 0 180.39215742-181.04575166V261.79575165A181.04575166 181.04575166 0 0 0 1104.70653565 80.75z m0 0" p-id="14478" fill="#000000"></path><path d="M1097.51699375 413.64760391h-235.29411826a13.07189531 13.07189531 0 0 1 0-25.92592648h235.29411826a13.07189531 13.07189531 0 0 1 0 25.92592648z m0 0M1097.51699375 334.34477099h-235.29411826a13.07189531 13.07189531 0 0 1 0-25.92592559h235.29411826a13.07189531 13.07189531 0 0 1 0 25.92592559z m0 0" p-id="14479" fill="#000000"></path></svg>