<svg t="1587207326525" class="icon" viewBox="0 0 1024 1024" version="1.1" xmlns="http://www.w3.org/2000/svg" p-id="12818" width="22" height="22"><path d="M393.650033 1008.196059C155.140894 967.67211 17.054933 785.843902 69.014328 580.723198c14.502295-57.240679 33.943067-100.407827 71.219042-158.136624 39.84959-61.70434 83.85892-112.208595 130.58308-149.849889 20.553105-16.551978 38.179554-30.828123 39.166022-31.713283 0.992607-0.89437-4.797259-14.391778-12.867052-30.000268-49.040926-94.863555-3.848655-171.183777 116.674303-197.017142 49.336662-10.580986 159.585625-10.482749 209.351052 0.181125 52.878324 11.335163 94.590332 35.08917 116.028596 66.075905 24.039509 34.749432 24.311709 82.406848 0.728594 128.476093l-16.166191 31.590486 16.435321 11.499915c30.337959 21.22951 120.486118 116.828822 145.429207 154.209174 55.261605 82.827427 84.597747 158.816099 90.50427 234.423077 11.907191 152.385643-79.313394 283.291065-238.114143 341.714685-91.462085 33.647331-235.405451 44.523029-344.336396 26.019607z m233.608526-67.297732c121.478725-17.547655 218.72249-81.086783 259.056104-169.281451 16.301268-35.653011 19.612687-50.216705 21.5979-95.043657 2.799766-63.316048-6.111185-99.771331-41.092907-168.006411-52.848649-103.099123-138.613988-193.465247-222.466767-234.408751l-43.274596-21.126157 26.02677-17.590633c31.287587-21.155832 63.389726-67.420529 63.389726-91.37715 0-24.817222-25.898857-48.365544-66.244751-60.23385-45.51359-13.380752-166.239162-13.586436-211.219609-0.361227-41.847084 12.30628-67.478857 33.81413-67.478857 56.636928 0 33.431414 29.234835 74.393337 74.454736 104.335277l13.81361 9.147334-36.948517 17.630542c-113.2626 54.039777-224.003773 189.141778-261.559111 319.093479-19.403932 67.151399-7.78122 152.717194 28.670993 211.116255 17.621333 28.220738 73.373101 79.493495 103.171778 94.869695 94.675266 48.845475 221.722824 64.581877 360.103498 44.599777z m-132.231627-161.965835c-9.138124-9.242502-11.496845-19.376303-11.496845-49.41955v-37.790698l-38.807865-0.085957c-48.835242-0.107447-66.964134-8.67866-69.295226-32.751939-2.848884-29.40982 9.892301-36.933167 62.525033-36.933167h45.578058v-40.700981H437.866071c-40.673351 0-46.650483-1.412163-54.615899-12.924357-19.851117-28.661783-2.38021-51.147914 43.203988-55.577806l29.277814-2.845815-29.216416-29.92045c-31.740912-32.503275-37.129642-52.492538-18.709107-69.353554 17.905812-16.386202 30.949896-10.997472 71.26509 29.470195l38.955221 39.084157 38.94908-39.084157c40.783869-40.931225 55.807027-46.850028 72.260768-28.462238 16.647145 18.60166 11.524474 36.369326-19.698645 68.345597l-29.222555 29.92045 30.29191 2.947122c44.966121 4.368494 64.213487 31.927153 39.643906 56.765865-9.454326 9.56689-19.162432 11.634991-54.618969 11.634991h-43.11803v40.700981h42.229801c45.222971 0 61.257156 8.577353 61.257155 32.776498 0 25.50079-13.561877 33.673937-59.798944 36.029588l-43.688012 2.232854v37.160341c0 40.287565-11.484565 60.411905-34.488488 60.411905-6.328126-0.001023-16.672728-5.227048-22.998807-11.629875z m0 0" p-id="12819" fill="#515151"></path></svg>