<svg t="1587205836147" class="icon" viewBox="0 0 1024 1024" version="1.1" xmlns="http://www.w3.org/2000/svg" p-id="7984" width="22" height="22"><path d="M104.96 155.648c-29.696 0-53.76 24.064-53.76 53.76s24.064 53.76 53.76 53.76S158.72 239.104 158.72 209.408c0.512-29.696-24.064-53.76-53.76-53.76z m189.952 102.4h632.832c25.088 0 45.056-21.504 45.056-48.128s-20.48-48.128-45.056-48.128H294.912c-25.088 0-45.056 21.504-45.056 48.128 0 26.112 19.968 48.128 45.056 48.128zM104.96 460.288c-29.696 0-53.76 24.064-53.76 53.76s24.064 53.76 53.76 53.76S158.72 543.744 158.72 514.048c0.512-29.696-24.064-53.76-53.76-53.76zM927.744 465.92H294.912c-25.088 0-45.056 21.504-45.056 48.128s20.48 48.128 45.056 48.128h632.832c25.088 0 45.056-21.504 45.056-48.128s-20.48-48.128-45.056-48.128zM104.96 764.928c-29.696 0-53.76 24.064-53.76 53.76s24.064 53.76 53.76 53.76S158.72 848.384 158.72 818.688s-24.064-53.76-53.76-53.76z m822.784 5.632H294.912c-25.088 0-45.056 21.504-45.056 48.128s20.48 48.128 45.056 48.128h632.832c25.088 0 45.056-21.504 45.056-48.128s-20.48-48.128-45.056-48.128z m0 0" p-id="7985" fill="#515151"></path></svg>