<svg t="1587180079042" class="icon" viewBox="0 0 1024 1024" version="1.1" xmlns="http://www.w3.org/2000/svg" p-id="1146" width="16" height="16"><path d="M576 742.4H324.267c-12.8 0-21.334 8.533-21.334 21.333s8.534 21.334 21.334 21.334H576c12.8 0 21.333-8.534 21.333-21.334S584.533 742.4 576 742.4zM699.733 576H324.267c-12.8 0-21.334 8.533-21.334 21.333 0 12.8 8.534 21.334 21.334 21.334h375.466c12.8 0 21.334-8.534 21.334-21.334 0-12.8-8.534-21.333-21.334-21.333zM324.267 281.6h102.4c12.8 0 21.333-8.533 21.333-21.333 0-12.8-8.533-21.334-21.333-21.334h-102.4c-12.8 0-21.334 8.534-21.334 21.334 0 12.8 8.534 21.333 21.334 21.333zM678.4 55.467H221.867c-46.934 0-85.334 38.4-85.334 85.333v750.933c0 46.934 38.4 85.334 85.334 85.334H806.4c46.933 0 85.333-38.4 85.333-85.334V281.6L678.4 55.467z m166.4 832c0 21.333-17.067 42.666-42.667 42.666H221.867c-21.334 0-42.667-17.066-42.667-42.666V136.533c0-21.333 17.067-42.666 42.667-42.666h375.466v209.066c0 21.334 17.067 42.667 42.667 42.667h209.067v541.867zM635.733 302.933V93.867h21.334L844.8 302.933H635.733z m-332.8 123.734c0 12.8 8.534 21.333 21.334 21.333h375.466c12.8 0 21.334-8.533 21.334-21.333 0-12.8-8.534-21.334-21.334-21.334H324.267c-12.8 4.267-21.334 12.8-21.334 21.334z" p-id="1147" fill="#515151"></path></svg>