<svg t="1587183509135" class="icon" viewBox="0 0 1024 1024" version="1.1" xmlns="http://www.w3.org/2000/svg" p-id="6061" width="16" height="16"><path d="M512 0C229.664 0 0 229.664 0 512c0 282.272 229.664 512 512 512 282.272 0 512-229.728 512-512 0-282.336-229.728-512-512-512z m-48.736 635.392l237.984-237.984a47.776 47.776 0 0 1 67.744 0.16c18.72 18.752 18.88 48.96 0.16 67.744l-271.84 271.84c-7.04 7.04-15.68 11.392-24.8 13.12a47.872 47.872 0 0 1-43.2-13.056l-158.528-158.528a47.84 47.84 0 0 1 0.064-67.84 48 48 0 0 1 67.84-0.064l124.576 124.608z" fill="#515151" p-id="6062"></path></svg>