<?xml version="1.0" standalone="no"?><!DOCTYPE svg PUBLIC "-//W3C//DTD SVG 1.1//EN" "http://www.w3.org/Graphics/SVG/1.1/DTD/svg11.dtd"><svg t="1585476667806" class="icon" viewBox="0 0 1024 1024" version="1.1" xmlns="http://www.w3.org/2000/svg" p-id="3037" width="16" height="16" xmlns:xlink="http://www.w3.org/1999/xlink"><defs><style type="text/css"></style></defs><path d="M511.924 32c264.988 0 479.81 220.358 479.81 492.176 0 217.344-137.306 401.714-327.84 466.924-24.348 4.798-32.984-10.52-32.984-23.684 0-16.148 0.6-69.208 0.6-135.002 0-45.924-15.354-75.944-32.566-91.14 106.87-12.18 219.05-53.798 219.05-242.844 0-53.736-18.532-97.66-49.298-132.048 4.948-12.488 21.41-62.502-4.768-130.264 0 0-40.212-13.258-131.79 50.444-38.292-10.92-79.374-16.394-120.094-16.58-40.782 0.184-81.832 5.66-120.094 16.58-91.668-63.672-131.94-50.444-131.94-50.444-26.088 67.794-9.656 117.808-4.708 130.264-30.706 34.388-49.388 78.344-49.388 132.048 0 188.584 111.998 230.816 218.54 243.242-13.734 12.304-26.088 33.988-30.466 65.794-27.348 12.58-96.826 34.296-139.646-40.91 0 0-25.338-47.246-73.466-50.722 0 0-46.838-0.646-3.298 29.898 0 0 31.456 15.164 53.286 72.008 0 0 28.188 95.722 161.626 65.978 0.21 41.094 0.63 72.038 0.63 83.726 0 13.042-8.756 28.206-32.744 23.716C169.722 926.044 32.264 741.582 32.264 524.176 32.264 252.328 247.086 32 512.014 32h-0.09z" p-id="3038"></path></svg>