<svg t="1586100031802" class="icon" viewBox="0 0 1024 1024" version="1.1" xmlns="http://www.w3.org/2000/svg" p-id="9675" width="16" height="16"><path d="M210.48824 49.8c-6.2-17.8-31.4-17.8-37.8 0L59.68824 399.4h264c-0.2 0-113.2-349.6-113.2-349.6zM1.88824 575.4c-5.2 16 0.6 33.8 14.2 44l495.8 368-452.4-588z m321.6-176l188.6 588 188.6-588z m698.8 176l-57.6-176-452.6 588 495.8-368c13.8-10.2 19.4-28 14.4-44zM851.48824 49.8c-6.2-17.8-31.4-17.8-37.8 0l-113.2 349.6h264z" p-id="9676" fill="#515151"></path></svg>