<svg t="1586788797050" class="icon" viewBox="0 0 1024 1024" version="1.1" xmlns="http://www.w3.org/2000/svg" p-id="12959" width="48" height="48"><path d="M510.9 991.6c-59.3 0-116.8-11.6-170.9-34.5-52.3-22.1-99.2-53.8-139.6-94.1-40.3-40.3-72-87.3-94.1-139.6-22.9-54.1-34.5-111.6-34.5-170.9 0-59.3 11.6-116.8 34.5-170.9 22.1-52.3 53.8-99.2 94.1-139.6 40.3-40.3 87.3-72 139.6-94.1 54.1-22.9 111.6-34.5 170.9-34.5 27.1 0 54.1 2.5 80.4 7.3l2.4 0.4 2.3-0.6c31.7-8.6 46.7-35 49.9-54.9 1.4-8.5 1-16 0.7-22-0.3-5.4-0.5-10.6 0.9-12.1 0.5-0.5 0.7-0.6 1.4-0.6 7.2 0 20.9 12.6 25.3 16.8l1.3 1.2c9.8 9 19.3 25.2 24.5 36.4 8.9 19.2 9.6 40.3 1.9 61l-3.3 8.9 8.5 4.2c42.2 21.1 80.7 48.8 114.3 82.4 40.3 40.3 72 87.3 94.1 139.6C938.4 435.5 950 493 950 552.3c0 59.3-11.6 116.8-34.5 170.9-22.1 52.3-53.8 99.2-94.1 139.6-40.3 40.3-87.3 72-139.6 94.1-54.2 23.1-111.7 34.7-170.9 34.7z m-298.7-697c-30.9 35.7-54.9 76-71.2 119.9-16.4 44-24.7 90.4-24.7 137.9 0 105.4 41 204.5 115.6 279 74.5 74.5 173.6 115.6 279 115.6s204.5-41 279-115.6c74.5-74.5 115.6-173.6 115.6-279 0-47.5-8.3-94-24.7-137.9-16.3-43.9-40.3-84.2-71.2-119.9l-9.1-10.5-7.7 11.6c-22.2 33.3-73.3 54-101.7 63.4-52 17.1-114.3 26.2-180.1 26.2-40.8 0-80.4-3.5-117.7-10.4-6.2-1.2-11.6-5-14.6-10.5-3.1-5.5-3.5-12.1-1.2-18 18.5-47.6 42-75.4 58.5-90.3l-11-17.7c-45.5 18-83.5 49.8-112.9 94.6-3.9 6-10.6 9.6-17.7 9.6-3.4 0-6.6-0.8-9.6-2.3-26.1-13.3-44.8-28.3-55.6-44.5l-7.7-11.6-9.3 10.4z m301.2 531.3h-2.8c-74.1-0.5-141.8-22.1-185.8-59.2-4.5-3.8-7.3-9.2-7.8-15.1s1.3-11.7 5.2-16.2c4.2-5 10.4-7.9 17-7.9 5.2 0 10.3 1.9 14.3 5.2 35.6 30 94.4 48.2 157.4 48.7h2.7c62.4 0 120-18.1 154.2-48.4 4.1-3.6 9.3-5.6 14.7-5.6 6.4 0 12.4 2.7 16.7 7.5 8.1 9.2 7.3 23.3-1.9 31.4-42.7 37.9-109.7 59.6-183.9 59.6z m126.4-231.1c-23.2 0-42.1-18.9-42.1-42.1 0-23.2 18.9-42.1 42.1-42.1 23.2 0 42.1 18.9 42.1 42.1 0 23.2-18.9 42.1-42.1 42.1z m-257.8 0c-23.2 0-42.1-18.9-42.1-42.1 0-23.2 18.9-42.1 42.1-42.1 23.2 0 42.1 18.9 42.1 42.1 0 23.2-18.9 42.1-42.1 42.1z" p-id="12960"></path></svg>