<svg t="1586692964601" class="icon" viewBox="0 0 1024 1024" version="1.1" xmlns="http://www.w3.org/2000/svg" p-id="13892" width="48" height="48"><path d="M185.742222 598.914844c-0.3072 5.597867-0.466489 11.241244-0.466489 16.918756 0 171.656533 144.122311 310.806756 321.900089 310.806756 177.789156 0 321.911467-139.150222 321.911467-310.806756 0-5.677511-0.159289-11.320889-0.466489-16.918756a11.377778 11.377778 0 0 0 0.466489-3.242666v-243.939556c0-140.993422-114.301156-255.294578-255.305956-255.294578H440.581689c-141.0048 0-255.317333 114.301156-255.317333 255.305956v243.928178a11.377778 11.377778 0 0 0 0.477866 3.242666z m-39.936 26.646756a11.4688 11.4688 0 0 1-0.113778-1.683911V346.077867C145.692444 186.356622 275.171556 56.888889 434.881422 56.888889h143.132445C737.735111 56.888889 867.214222 186.368 867.214222 346.077867v277.799822c0 0.568889-0.045511 1.137778-0.125155 1.683911C862.037333 815.024356 702.509511 967.111111 506.447644 967.111111 310.397156 967.111111 150.869333 815.024356 145.8176 625.5616z" p-id="13893"></path><path d="M113.891556 468.047644v-89.782044c-1.7408-53.76 16.088178-81.089422 53.486933-81.976889 33.496178 1.922844 49.595733 23.972978 48.275911 66.1504v59.562667c3.072 48.503467-10.433422 75.1616-40.504889 79.951644l-12.879644-41.016889-48.378311 7.111111z m784.736711-0.455111l-48.378311-7.122489-12.879645 41.016889c-30.060089-4.790044-43.565511-31.448178-40.504889-79.951644v-59.562667c-1.308444-42.177422 14.791111-64.227556 48.275911-66.1504 37.410133 0.887467 55.239111 28.216889 53.486934 81.976889v89.782045z" p-id="13894"></path><path d="M182.044444 648.351289v34.178844c-1.888711 0.091022-3.777422 0.136533-5.688888 0.136534C110.375822 682.666667 56.888889 629.179733 56.888889 563.2S110.375822 443.733333 176.355556 443.733333c1.911467 0 3.800178 0.045511 5.688888 0.136534v34.178844a85.333333 85.333333 0 1 0 0 170.2912zM853.333333 645.620622a85.367467 85.367467 0 0 0 0-167.253333V443.733333c57.890133 8.283022 102.4 58.072178 102.4 118.260623s-44.509867 109.966222-102.4 118.249244v-34.622578zM514.548622 725.026133c3.413333-8.487822 10.740622-15.735467 24.746667-19.000889 11.798756-1.979733 30.742756 0.841956 43.349333 9.193245 36.443022 18.830222 56.194844 74.365156 120.888889 81.464889 3.242667 0.091022 6.838044 0.796444 6.974578 5.7344 0.318578 4.778667-4.357689 6.371556-7.076978 6.826666-27.386311 7.543467-58.641067 8.669867-93.730133 3.390578-29.138489-7.247644-52.224-16.679822-69.245156-28.296533-13.983289-9.921422-22.619022-19.262578-25.9072-28.034845-3.288178 8.760889-11.923911 18.113422-25.9072 28.034845-17.021156 11.605333-40.106667 21.048889-69.233778 28.296533-35.100444 5.279289-66.343822 4.152889-93.741511-3.401955-2.719289-0.443733-7.395556-2.036622-7.076977-6.815289 0.136533-4.926578 3.731911-5.643378 6.974577-5.745778 64.705422-7.088356 84.445867-62.623289 120.900267-81.464889 12.606578-8.339911 31.5392-11.1616 43.349333-9.181867 13.994667 3.265422 21.321956 10.513067 24.735289 19.000889zM384.341333 567.5008a49.948444 49.948444 0 1 1 0-99.896889 49.948444 49.948444 0 0 1 0 99.896889z m244.212623 0a49.948444 49.948444 0 1 1 0-99.896889 49.948444 49.948444 0 0 1 0 99.896889zM273.169067 236.544l-0.113778-0.193422c25.315556-23.927467 54.772622-35.419022 88.393955-34.463289 66.059378 0.682667 80.645689 46.580622 131.595378 46.580622 50.938311 0 69.506844-47.274667 145.544534-47.274667 47.3088 0.056889 81.191822 12.401778 101.637688 37.000534l-0.136533 0.170666c3.049244 2.309689 5.006222 5.996089 5.006222 10.160356 0 6.985956-5.5296 12.640711-12.356266 12.640711-3.072 0-5.870933-1.137778-8.032711-3.026489l-0.1024 0.113778a50.699378 50.699378 0 0 0-1.479112-1.763556c-15.041422-17.339733-43.087644-26.100622-84.104533-26.305422-68.664889 0-83.364978 48.708267-146.545778 48.708267-63.1808 0-88.996978-48.708267-130.798933-48.708267-26.123378 0-50.221511 8.3968-72.2944 25.1904-1.024 1.171911-2.2528 2.1504-3.640889 2.855822l-0.750933 0.625778-0.113778-0.216178a12.094578 12.094578 0 0 1-4.721778 0.955734c-6.826667 0-12.356267-5.654756-12.356266-12.629334 0-4.323556 2.127644-8.146489 5.370311-10.433422zM273.169067 314.242844l-0.113778-0.193422c25.315556-23.927467 54.772622-35.419022 88.393955-34.463289 66.059378 0.682667 80.645689 46.580622 131.595378 46.580623 50.938311 0 69.506844-47.274667 145.544534-47.274667 47.3088 0.056889 81.191822 12.401778 101.637688 37.000533l-0.136533 0.182045c3.049244 2.298311 5.006222 5.996089 5.006222 10.160355 0 6.974578-5.5296 12.629333-12.356266 12.629334-3.072 0-5.870933-1.137778-8.032711-3.026489l-0.1024 0.125155a50.699378 50.699378 0 0 0-1.479112-1.774933c-15.041422-17.328356-43.087644-26.100622-84.104533-26.305422-68.664889 0-83.364978 48.708267-146.545778 48.708266-63.1808 0-88.996978-48.708267-130.798933-48.708266-26.123378 0-50.221511 8.3968-72.2944 25.201777-1.024 1.160533-2.2528 2.139022-3.640889 2.844445l-0.750933 0.625778-0.113778-0.216178a12.094578 12.094578 0 0 1-4.721778 0.955733c-6.826667 0-12.356267-5.654756-12.356266-12.629333 0-4.323556 2.127644-8.146489 5.370311-10.422045z" p-id="13895"></path></svg>