<?xml version="1.0" standalone="no"?><!DOCTYPE svg PUBLIC "-//W3C//DTD SVG 1.1//EN" "http://www.w3.org/Graphics/SVG/1.1/DTD/svg11.dtd"><svg t="1585477220911" class="icon" viewBox="0 0 1024 1024" version="1.1" xmlns="http://www.w3.org/2000/svg" p-id="7031" width="24" height="24" xmlns:xlink="http://www.w3.org/1999/xlink"><defs><style type="text/css"></style></defs><path d="M480.933397 299.962679c-87.622537-44.075781-382.88114 122.112608-317.067858 338.217958 36.01391 118.286594 196.19086 174.286746 357.711658 125.111639 188.561938-57.402375 274.81752-143.285815 243.122166-224.322889-10.557416-26.980333-44.36401-26.728589-78.289786-60.294385-20.681881-20.465406 7.150974-82.199715-23.896171-97.292161-29.126841-14.168171-116.967069 18.126746-143.98267 2.986869-24.136969-13.544285-11.684789-71.366233-37.597339-84.407031z m321.363306-7.977957c-30.038955-35.365701-83.976513-49.857368-167.207525-38.820789l-3.551164 0.359981c-9.620979 0-17.418945-7.797967-17.418945-17.406783 0-9.297482 7.29448-16.891135 16.459401-17.382461 96.04439-12.728247 160.105197 6.118461 198.086841 50.697729 37.476941 43.918898 47.698698 111.567354 36.877378 197.475116-0.359981 9.285321-8.014442 16.723306-17.395839 16.723307-9.597872 0-17.394622-7.810128-17.394622-17.418946l0.383088-3.670346c9.574765-76.156656 1.680722-134.747211-28.838613-170.556808z m-86.902575 58.698793c-22.962166-20.334062-45.323553-5.950632-67.276313-5.950631-9.597872 0-17.395838-7.797967-17.395839-17.406784 0-8.710081 6.382366-15.931591 14.73125-17.214632 38.725929-9.620979 70.156162-5.554166 92.924959 14.599905 27.736779 24.545596 34.935183 69.051895 34.935183 104.190176 0 9.608817-7.797967 17.406784-17.395838 17.406784-9.620979 0-17.418945-7.797967-17.418946-17.406784 0.864684-23.297824-4.437739-61.709986-23.104456-78.218034zM521.816779 551.301169c45.707857 98.947344-109.648266 186.809463-183.066147 110.284313 29.607221 18.307952 84.672152 14.76895 92.589301-24.388712 11.46953-56.86362-96.116143-83.711392-116.318859-29.355478-5.349853-97.567012 164.232817-148.672152 206.795705-56.540123z m-68.426793 12.561634c13.963857 2.81904 23.513083 13.892105 21.33009 24.74991-2.207316 10.856589-15.283382 17.370299-29.271563 14.539097-13.963857-2.808095-23.48876-13.892105-21.305767-24.736532 2.182993-10.857805 15.282166-17.372732 29.24724-14.552475zM233.829549 617.834413c-8.109302-74.869967 78.840703-147.989891 194.224342-163.29638 115.3581-15.332029 215.458356 32.94191 223.590765 107.824038 8.110518 74.882128-78.840703 147.989891-194.223126 163.29638-115.359316 15.333245-215.458356-32.940694-223.591981-107.824038z" fill="#DC1116" p-id="7032"></path></svg>