<svg t="1586100097348" class="icon" viewBox="0 0 1024 1024" version="1.1" xmlns="http://www.w3.org/2000/svg" p-id="11134" width="18" height="18"><path d="M512 1024C229.12 1024 0 794.88 0 512S229.12 0 512 0s512 229.12 512 512-229.12 512-512 512z m0-1011.2C236.8 12.8 12.8 236.8 12.8 512s224 499.2 499.2 499.2 499.2-224 499.2-499.2S787.2 12.8 512 12.8z" p-id="11135" fill="#515151"></path><path d="M624.64 408.32c7.68 0 14.08 0 21.76 1.28-19.2-90.88-117.76-158.72-229.12-158.72C294.4 250.88 192 336.64 192 444.16c0 62.72 34.56 113.92 90.88 152.32l-23.04 67.84 79.36-39.68c28.16 5.12 51.2 11.52 79.36 11.52 7.68 0 14.08 0 21.76-1.28-3.84-15.36-6.4-30.72-6.4-47.36-1.28-98.56 83.2-179.2 190.72-179.2z m-121.6-61.44c16.64 0 28.16 11.52 28.16 28.16 0 16.64-11.52 28.16-28.16 28.16-16.64 0-34.56-11.52-34.56-28.16 1.28-16.64 17.92-28.16 34.56-28.16z m-158.72 57.6c-16.64 0-34.56-11.52-34.56-28.16 0-16.64 16.64-28.16 34.56-28.16 16.64 0 28.16 11.52 28.16 28.16 0 16.64-10.24 28.16-28.16 28.16z m0 0" p-id="11136" fill="#515151"></path><path d="M832 584.96c0-90.88-90.88-163.84-192-163.84-107.52 0-193.28 74.24-193.28 163.84 0 90.88 84.48 163.84 193.28 163.84 23.04 0 44.8-5.12 67.84-11.52l62.72 34.56-16.64-56.32c43.52-33.28 78.08-79.36 78.08-130.56z m-254.72-28.16c-11.52 0-23.04-11.52-23.04-23.04s11.52-23.04 23.04-23.04c16.64 0 28.16 11.52 28.16 23.04s-11.52 23.04-28.16 23.04z m124.16 0c-11.52 0-23.04-11.52-23.04-23.04s11.52-23.04 23.04-23.04c16.64 0 28.16 11.52 28.16 23.04s-11.52 23.04-28.16 23.04z m0 0" p-id="11137" fill="#515151"></path></svg>