<?xml version="1.0" standalone="no"?><!DOCTYPE svg PUBLIC "-//W3C//DTD SVG 1.1//EN" "http://www.w3.org/Graphics/SVG/1.1/DTD/svg11.dtd"><svg t="1585751559533" class="icon" viewBox="0 0 1024 1024" version="1.1" xmlns="http://www.w3.org/2000/svg" p-id="12585" xmlns:xlink="http://www.w3.org/1999/xlink" width="13" height="13"><defs><style type="text/css"></style></defs><path d="M630.125714 748.306286H118.308571A118.418286 118.418286 0 0 1 0 630.107429V393.892571a118.418286 118.418286 0 0 1 118.308571-118.198857h118.125715v78.738286H118.308571a39.460571 39.460571 0 0 0-39.497142 39.460571v236.214858a39.460571 39.460571 0 0 0 39.497142 39.460571h511.817143v78.738286z m275.565715 0h-118.125715v-78.738286h118.125715a39.460571 39.460571 0 0 0 39.497142-39.460571V393.892571a39.460571 39.460571 0 0 0-39.497142-39.460571H387.291429v-78.738286h518.4A118.4 118.4 0 0 1 1024 393.892571v236.214858a118.418286 118.418286 0 0 1-118.308571 118.198857z m-551.314286-124.745143h-78.628572V118.217143A118.272 118.272 0 0 1 393.874286 0.018286h236.251428a118.272 118.272 0 0 1 118.125715 118.198857v114.834286h-78.628572v-114.834286a39.460571 39.460571 0 0 0-39.497143-39.460572H393.874286a39.460571 39.460571 0 0 0-39.497143 39.460572V623.542857z m275.748571 400.457143H393.874286a118.272 118.272 0 0 1-118.125715-118.198857v-98.377143h78.628572v98.377143a39.460571 39.460571 0 0 0 39.497143 39.460571h236.251428a39.460571 39.460571 0 0 0 39.497143-39.460571V393.892571h78.628572v511.890286a118.381714 118.381714 0 0 1-118.125715 118.198857z" fill="#515151" p-id="12586"></path></svg>