<svg t="1586789119059" class="icon" viewBox="0 0 1024 1024" version="1.1" xmlns="http://www.w3.org/2000/svg" p-id="18823" width="45" height="45"><path d="M231.424 501.248c19.968 0 36.352-16.896 36.352-16.896 0-22.016-2.048-45.056-5.632-67.584-5.632-39.936-14.848-75.776-19.456-91.648 5.632-3.584 9.728-10.24 9.728-17.92 0-10.24-6.656-18.432-15.872-20.48v-34.304l-10.752-6.144v40.448c-9.216 2.56-15.872 10.752-15.872 20.48 0 7.68 3.584 14.336 9.728 17.92-6.656 24.576-25.088 97.792-25.088 158.72 0 0.512 16.896 17.408 36.864 17.408z m66.048-30.208c-0.512 8.192-1.024 16.896 0 25.088 2.56 24.064 10.24 46.592 25.088 66.048 8.192 10.752 14.848 12.288 26.624 7.68 4.096 1.024 12.8 20.48 14.336 24.576 16.896 35.84 43.52 79.872 93.696 98.816 34.304 12.8 72.704 16.896 108.544 6.656 37.888-10.752 68.096-37.888 91.136-69.12 21.504-28.672 28.16-46.592 31.744-54.272 1.536-3.072 1.536-6.144 5.12-6.656 2.56-0.512 6.656 2.048 9.216 1.536 6.656-0.512 11.264-5.12 15.36-10.24 14.848-19.456 22.528-41.984 25.088-66.048 1.024-8.192 0.512-16.896 0-25.088-1.024-12.8-8.704-26.112-25.088-26.112-1.024 0-1.536-0.512-3.072-1.024l-1.024-3.584 1.536-16.896c1.024-19.456 2.56-38.4 3.584-57.344 0.512-8.192 1.536-15.872 2.048-24.064l-48.64-12.8c-2.048-1.024-22.528-4.096-22.528-4.096-10.752-1.536-78.336-8.192-141.824-8.192-50.688-0.512-98.816 4.608-111.616 6.656-4.096 0.512-12.288 2.56-12.8 2.56 0 0-36.864 8.192-51.2 13.312l-13.312 5.12c0.512 18.432 2.048 36.864 3.072 55.296 0.512 14.848 2.048 29.696 3.584 44.544-1.536 0.512-2.048 1.024-3.072 1.024-16.896 0-24.576 13.824-25.6 26.624z m76.288-40.448c41.472 0 77.824-2.56 110.592-8.192 11.264-2.048 25.088-4.608 38.912-7.68 41.472-10.24 73.728-25.088 100.864-47.104 14.336 16.896 33.28 29.696 60.416 40.448 1.024 0.512 1.536 0.512 2.56 1.024l-0.512 10.752c-2.048 36.352-7.68 84.992-13.312 110.08-6.656 30.208-57.344 150.016-157.696 147.456-16.384-0.512-31.744-4.096-46.08-9.728-50.688-16.896-78.336-63.488-99.328-129.024-9.216-28.672-13.824-60.416-13.824-97.792 0-7.68-0.512-14.848-1.536-22.528 6.656 11.776 12.8 12.288 18.944 12.288zM715.776 258.56v-0.512c-0.512-13.312 0.512-6.656-3.072-19.456-1.536-6.656-3.584-11.264-9.216-14.848-6.656-4.608-13.312-9.216-20.992-12.8-17.92-9.216-36.864-15.36-57.344-19.456-43.52-8.704-87.04-11.264-131.072-9.216-18.432 0.512-36.864 2.048-54.784 4.608-30.72 4.608-60.416 11.776-88.064 27.136-10.24 5.632-17.408 9.216-20.48 21.504-6.656 28.16-6.144 52.736-7.168 80.896v2.56c16.896-6.144 35.84-11.264 53.76-14.336 11.776-3.072 25.6-5.12 39.936-5.632 10.24-3.072 45.056-4.608 80.384-4.608 32.768 0.512 65.536-0.512 98.304 1.536 24.064 1.024 48.128 5.632 71.68 9.216 5.632 1.024 11.264 1.536 15.872 3.584l32.256 8.704c1.024-13.824 1.024-45.056 0-58.88zM309.76 230.912c5.12-20.48 18.944-28.16 29.696-34.304 27.136-15.36 57.344-24.576 96.256-30.72 16.896-2.56 75.776-5.632 84.992-5.632 38.912 0 74.24 3.584 108.032 10.24 23.04 5.12 43.52 11.776 62.464 20.992 7.168 3.584 23.04 13.824 23.04 13.824 11.776 7.68 15.872 17.92 18.432 27.648 3.072 11.776 3.072 23.04 3.584 33.28 0 2.56 0.512 9.728 0.512 9.728s81.92-47.104 119.808-69.12c-5.632-4.096-9.728-7.168-14.336-9.728C740.352 139.776 637.952 82.432 536.576 24.576c-10.752-6.144-18.944-6.144-29.696 0C405.504 81.408 305.152 138.24 204.8 194.56c-6.144 3.584-11.776 7.168-19.456 12.288 17.92 10.24 118.784 68.608 118.784 68.608 0.512-16.384 2.048-31.744 5.632-44.544z m533.504 577.024c-50.688-33.28-173.568-76.288-176.128-76.8-0.512 1.024-30.208 62.464-41.984 87.552-8.192 16.896-22.528 18.432-33.28 3.072-8.704-12.8-31.744-46.08-34.304-50.176-7.168-10.24-14.336-10.752-22.528-2.048-1.536 1.536-12.288 11.264-15.872 11.264-3.584 0-14.336-9.728-15.872-11.264-8.704-8.704-14.336-9.216-22.528 2.048S456.704 805.376 448 816.64c-17.92 22.528-34.816 18.432-42.496 0-12.288-29.184-33.792-84.48-34.304-84.992-2.048 0.512-125.44 43.52-176.128 76.8-115.2 72.704-112.128 196.096-112.128 196.096H967.68c0 1.024 14.336-105.472-124.416-196.608z" p-id="18824" fill="#515151"></path></svg>