<svg t="1586788962144" class="icon" viewBox="0 0 1024 1024" version="1.1" xmlns="http://www.w3.org/2000/svg" p-id="18003" width="48" height="48"><path d="M512.370275 0c246.097402 0 386.025224 205.927081 405.9117 435.804632 34.462667 27.761593 54.836823 70.063253 54.836823 114.405941 0 37.208121-13.311837 71.11086-35.708959 96.614679-18.640185 21.385638-43.547951 37.190059-71.219233 44.595559-34.751662 61.664332-83.555712 113.936324-142.420405 150.602579-5.057414 2.817702-9.825834 6.123084-14.612315 8.922724l0 151.397315c0 11.975235-9.572963 21.656571-21.656571 21.656571-4.009807 0-7.531935-1.535287-11.306934-3.323444l-73.711816-45.607041c-8.56148 11.198561-22.180375 18.838869-36.738504 18.838869L458.544935 993.908384c-14.612315 0-28.447957-7.640308-36.756566-18.838869l-73.964687 45.607041c-3.287319 1.788157-7.062318 3.323444-11.090188 3.323444-11.559805 0-21.367576-9.681336-21.367576-21.656571l0-151.397315c-4.804544-2.79964-9.825834-5.870213-14.847124-8.922724-58.647946-36.666255-107.722929-88.938246-142.185596-150.602579-27.942215-7.658371-53.08479-23.20992-71.201171-44.595559C64.482035 621.321433 50.881202 587.418694 50.881202 550.210573c0-44.36075 20.645088-86.644348 54.854885-114.405941C125.857372 205.927081 265.785194 0 512.370275 0M666.133738 872.078881 666.133738 872.078881c-17.393893 7.423562-35.979892 13.528584-54.872947 18.874993l0 38.508599 54.872947 34.372356L666.133738 872.078881zM412.721147 929.444411 412.721147 929.444411l0-38.508599c-18.585998-5.34641-37.226183-11.451431-54.854885-18.874993l0 91.755949L412.721147 929.444411zM568.742384 899.352795 568.742384 899.352795c-18.622123 2.79964-37.479054 3.847247-56.372109 3.847247-19.127864 0-38.237666-1.047607-56.877851-3.847247l0 48.189935c0 0.74055 0.523804 1.517224 1.047607 2.004904 0.487679 0.523804 0.993421 1.047607 2.004904 1.047607l107.199125 0c0.993421 0 1.4811-0.505741 2.004904-1.047607 0.469617-0.487679 0.993421-1.264354 0.993421-2.004904L568.742384 899.352795zM392.852733 527.560581 392.852733 527.560581c19.380735 0 35.492212 16.075353 35.492212 35.907643 0 20.157409-16.111478 35.690897-35.492212 35.690897-19.362673 0-35.47415-15.515425-35.47415-35.690897C357.378583 543.617872 373.490061 527.560581 392.852733 527.560581M631.653008 527.560581 631.653008 527.560581c19.145926 0 35.239342 16.075353 35.239342 35.907643 0 20.157409-16.111478 35.690897-35.239342 35.690897-19.886476 0-35.727021-15.515425-35.727021-35.690897C595.94405 543.617872 611.784594 527.560581 631.653008 527.560581M380.516254 722.758718 380.516254 722.758718c-9.554901-6.375955-12.571287-19.362673-6.538514-29.567813 6.050835-9.952269 19.362673-13.257651 29.188507-6.610763 16.617219 10.421886 34.209797 18.333128 52.326178 23.679537 18.152506 5.635405 37.262308 8.453107 56.877851 8.453107 19.380735 0 38.27379-2.817702 56.372109-8.453107 18.116381-5.34641 35.979892-13.239589 52.34424-23.679537 10.060642-6.646888 23.137671-3.341506 29.170444 6.610763 6.538514 10.187078 3.287319 23.191858-6.520452 29.567813-19.633606 12.246168-40.766373 22.433246-63.434428 28.791138-21.620447 6.628825-44.77618 10.458011-67.949976 10.458011-23.625351 0-46.799146-3.829185-68.437655-10.458011C421.282627 745.191964 399.896989 735.004886 380.516254 722.758718M849.555324 462.301871 849.555324 462.301871c-139.891697 28.538268-231.972766 19.615543-301.421904-14.774875-60.887658-29.044009-103.676997-76.45727-145.960595-134.057609-11.072125 48.930485-36.738504 83.844707-73.458946 108.318981-40.766373 26.244369-93.598293 39.483957-154.522075 42.30166-2.004904 9.428466-7.531935 17.321645-16.346286 22.686116-22.379059 13.257651-35.979892 37.442929-35.979892 63.434428 0 18.874993 7.044256 36.196638 18.369252 49.201418 11.324996 12.986718 27.436474 22.433246 45.552855 24.474274l0 0.252871c11.054063 1.246291 21.638509 8.416983 26.930732 19.109802 28.935636 57.076535 72.194592 104.489796 125.044573 137.868732 50.574145 31.879774 110.215512 50.212901 174.625298 50.212901 63.922107 0 123.328665-18.35119 174.155681-50.212901 51.820436-32.349391 95.133579-79.509781 123.545411-134.816221 4.804544-11.975235 15.352865-20.879897 28.447957-22.397121 18.116381-2.041028 34.227859-11.487556 45.769601-24.474274 11.090188-13.00478 18.116381-30.326425 18.116381-49.201418 0-25.991498-13.564708-50.176777-36.2147-63.434428C857.881996 481.429736 851.596352 472.507011 849.555324 462.301871M178.707354 420.776886 178.707354 420.776886c50.574145-3.847247 94.356905-14.034325 126.832731-35.185155 37.226183-24.961953 59.876175-65.999259 59.876175-129.451749 0-6.628825 3.269257-13.00478 9.067222-17.339707 9.554901-6.881696 22.649992-4.840668 29.694248 5.093539 51.314695 72.140405 95.621258 133.298996 162.035948 165.142645 62.152012 30.579296 146.737269 37.731925 279.078969 10.458011C822.136913 233.959607 711.686593 71.869472 512.370275 71.869472 312.602402 71.869472 201.357346 235.494894 178.707354 420.776886" p-id="18004"></path></svg>