<svg t="1587181641561" class="icon" viewBox="0 0 1024 1024" version="1.1" xmlns="http://www.w3.org/2000/svg" p-id="4616" width="16" height="16"><path d="M514.5 14.5c-275.7 0-500 224.3-500 500s224.3 500 500 500 500-224.3 500-500-224.3-500-500-500z m0 954.5C263.9 969 60 765.1 60 514.5S263.9 60 514.5 60 969 263.9 969 514.5 765.1 969 514.5 969z" p-id="4617" fill="#515151"></path><path d="M502 305.3c-20.6-16.9-48.4-20.3-72.4-8.9-24.1 11.4-39 35-39 61.6v341.8c0 26.6 15 50.2 39 61.6 9.4 4.5 19.4 6.6 29.3 6.6 15.4 0 30.6-5.3 43.1-15.6l208.3-170.9c15.8-13 24.9-32.2 24.9-52.7s-9.1-39.7-24.9-52.7L502 305.3z m179.4 241.2L473.1 717.4c-10.3 8.5-21.1 4.4-24.1 3-3.1-1.4-13-7.2-13-20.6V358.1c0-13.4 10-19.1 13-20.6 1.6-0.8 5.3-2.2 10-2.2 4.2 0 9.2 1.2 14.1 5.2l208.3 170.9c5.3 4.3 8.3 10.7 8.3 17.6s-3 13.2-8.3 17.5z" p-id="4618" fill="#515151"></path></svg>