<svg t="1587736275604" class="icon" viewBox="0 0 1251 1024" version="1.1" xmlns="http://www.w3.org/2000/svg" p-id="24815" width="20" height="20"><path d="M1058.133 51.2H153.6c-79.644 0-142.222 62.578-142.222 142.222V824.89c0 79.644 62.578 142.222 142.222 142.222h904.533c79.645 0 142.223-62.578 142.223-142.222V193.422c0-73.955-62.578-142.222-142.223-142.222z m91.023 756.622c0 62.578-51.2 113.778-113.778 113.778H176.356c-62.578 0-113.778-51.2-113.778-113.778V216.178c0-62.578 51.2-113.778 113.778-113.778h864.71c62.578 0 113.778 51.2 113.778 113.778v591.644z" fill="#000000" p-id="24816"></path><path d="M256 625.778h739.556c17.066 0 28.444 11.378 28.444 28.444s-11.378 28.445-28.444 28.445H256c-17.067 0-28.444-11.378-28.444-28.445s11.377-28.444 28.444-28.444z m0 113.778h512c17.067 0 28.444 11.377 28.444 28.444S785.067 796.444 768 796.444H256c-17.067 0-28.444-11.377-28.444-28.444s11.377-28.444 28.444-28.444z m364.089-301.512l-102.4 51.2 17.067-113.777-79.645-85.334 113.778-17.066 51.2-102.4 56.889 102.4 113.778 17.066-85.334 85.334 17.067 113.777z" fill="#000000" p-id="24817"></path></svg>