<svg t="1587736450200" class="icon" viewBox="0 0 1024 1024" version="1.1" xmlns="http://www.w3.org/2000/svg" p-id="25753" width="20" height="20"><path d="M801.066667 149.333333a21.333333 21.333333 0 0 1 21.333333 21.333334v682.666666a21.333333 21.333333 0 0 1-21.333333 21.333334h-578.133334a21.333333 21.333333 0 0 1-21.333333-21.333334V170.666667a21.333333 21.333333 0 0 1 21.333333-21.333334h578.133334m0-42.666666h-578.133334a64 64 0 0 0-64 64v682.666666a64 64 0 0 0 64 64h578.133334a64 64 0 0 0 64-64V170.666667a64 64 0 0 0-64-64zM490.666667 320v-42.666667h-192v320h192v-42.666666h-149.333334v-106.666667h149.333334v-42.666667h-149.333334v-85.333333z m234.666666 137.386667A94.72 94.72 0 0 0 630.613333 362.666667h-70.613333A48 48 0 0 0 512 410.666667V597.333333h42.666667v-186.666666a5.333333 5.333333 0 0 1 5.333333-5.333334h70.613333A52.053333 52.053333 0 0 1 682.666667 457.386667V597.333333h42.666666z m0 235.946666H298.666667v42.666667h426.666666z" p-id="25754" fill="#000000"></path></svg>