<svg t="1587735952765" class="icon" viewBox="0 0 1024 1024" version="1.1" xmlns="http://www.w3.org/2000/svg" p-id="22177" width="25" height="25"><path d="M354.866939 485.052632c-10.022170999999998 0-18.101268 8.999501-18.101268 20.248876v169.661041c0 11.147109 8.079097 20.248876 18.101268 20.248876 10.022170999999998 0 18.101268-9.101768 18.101269-20.248876v-169.763308c0.102267-11.147109-8.079097-20.146609-18.101269-20.146609z" fill="#000000" p-id="22178"></path><path d="M668.110922 654.713672c-8.590432 0-15.851393 6.749625-17.6922 15.749126-11.965245 14.93099-83.552182 46.633776-139.389993 48.372316-54.099270999999995 1.73854-126.913413-33.236792-138.367323-48.167782-1.73854-9.101768-8.999501-15.953659999999998-17.6922-15.953659999999998-10.022170999999998 0-18.101268 8.999501-18.101268 20.248877 0 8.692699 3.783881 17.180865 11.147109 25.157695 25.259962 27.407569999999996 102.573854 59.212624 159.638869 59.212623 1.5340059999999998 0 2.965745 0 4.397483-0.102267 51.951662999999996-1.636273 174.263058-38.759213 174.263058-84.370318-0.102267-11.147109-8.181364-20.146609-18.203535-20.14661zM765.980492 434.225906L519.925962 290.43843c-5.21562-3.0680119999999995-11.658444-3.0680119999999995-16.874063 0L256.99737 434.225906c-5.931489 3.47708-9.71537 10.431239-9.71537 17.896735 0 7.567762 3.783881 14.419654 9.71537 17.896734l246.15679599999999 143.582942c2.658943 1.5340059999999998 5.522421 2.352142 8.385898 2.352142 2.965745 0 5.829222-0.818136 8.385898-2.352142l246.156797-143.68520899999996c5.931489-3.47708 9.71537-10.431239 9.71537-17.896734-0.102267-7.363227999999999-3.886148-14.215119999999999-9.817637-17.794468zM511.437797 573.002297L304.4492819999999 452.224908l206.988515-120.981924 207.09078199999996 120.981924L511.437797 573.002297z" fill="#000000" p-id="22179"></path><path d="M668.110922 485.052632c-10.022170999999998 0-18.101268 8.999501-18.101268 20.248876v169.661041c0 11.147109 8.079097 20.248876 18.101268 20.248876 10.022170999999998 0 18.101268-9.101768 18.101268-20.248876v-169.763308c0-11.147109-8.079097-20.146609-18.101268-20.146609zM757.594593 431.976031c-10.022170999999998 0-18.101268 8.999501-18.101268 20.248877v247.384c0 11.147109 8.079097 20.248876 18.101268 20.248877 10.022170999999998 0 18.101268-9.101768 18.101269-20.248877V452.224908c0-11.249375999999998-8.079097-20.248876-18.101269-20.248877z" fill="#000000" p-id="22180"></path><path d="M511.437797 0C228.976197 0 0.0002660000000105356 228.975931 0.0002660000000105356 511.437531s228.975931 511.437531 511.437531 511.437531S1022.875328 793.899131 1022.875328 511.437531 793.8993970000001 0 511.437797 0z m0 992.09268c-265.485269 0-480.655148-215.169879-480.655148-480.655149s215.169879-480.655148 480.655148-480.655148 480.655148 215.169879 480.655148 480.655148-215.272146 480.655148-480.655148 480.655149z" fill="#000000" p-id="22181"></path></svg>