<svg t="1587780609306" class="icon" viewBox="0 0 1097 1024" version="1.1" xmlns="http://www.w3.org/2000/svg" p-id="27213" width="23" height="23"><path d="M903.972571 1014.345143H137.435429A128.585143 128.585143 0 0 1 9.581714 885.028571V302.957714c-0.073143-34.230857 13.385143-67.145143 37.302857-91.428571a127.268571 127.268571 0 0 1 90.404572-37.888h191.634286V108.982857c0-17.188571 6.729143-33.645714 18.724571-45.714286a63.634286 63.634286 0 0 1 45.202286-19.017142h255.488a63.634286 63.634286 0 0 1 45.202285 19.017142c11.995429 12.068571 18.724571 28.525714 18.651429 45.641143v64.658286h191.634286c33.938286 0.073143 66.56 13.750857 90.477714 38.034286 23.917714 24.210286 37.376 57.051429 37.302857 91.428571V885.028571a128.585143 128.585143 0 0 1-127.707428 129.316572zM648.411429 141.312a32.182857 32.182857 0 0 0-31.890286-32.402286h-191.634286a31.817143 31.817143 0 0 0-22.674286 9.508572 32.475429 32.475429 0 0 0-9.289142 22.893714v32.329143h255.488v-32.329143z m319.414857 161.645714a64.877714 64.877714 0 0 0-18.651429-45.714285 63.634286 63.634286 0 0 0-45.202286-19.017143H137.435429a63.634286 63.634286 0 0 0-45.275429 19.017143 64.877714 64.877714 0 0 0-18.651429 45.714285v161.645715h894.317715v-161.645715zM456.777143 561.664a64.512 64.512 0 0 0 41.984 61.001143 63.488 63.488 0 0 0 70.948571-19.309714 65.024 65.024 0 0 0 5.997715-74.020572H465.627429a64.585143 64.585143 0 0 0-8.777143 32.329143z m511.049143-32.329143H643.876571a129.682286 129.682286 0 0 1-49.737142 139.556572 126.756571 126.756571 0 0 1-146.944 0 129.682286 129.682286 0 0 1-49.737143-139.556572h-324.022857V885.028571c0 17.115429 6.729143 33.645714 18.724571 45.714286a63.634286 63.634286 0 0 0 45.202286 19.017143h766.537143a63.634286 63.634286 0 0 0 45.275428-19.017143 64.877714 64.877714 0 0 0 18.651429-45.714286V529.334857z" p-id="27214" fill="#2c2c2c"></path></svg>