<svg t="1587206929623" class="icon" viewBox="0 0 1024 1024" version="1.1" xmlns="http://www.w3.org/2000/svg" p-id="11356" width="22" height="22"><path d="M662.619 581.816h-411.87c-7.33 0-13.329 9.997-13.329 22.66 0 12.662 5.998 22.659 13.33 22.659h411.869c7.331 0 13.33-9.997 13.33-22.66 0.666-12.662-5.333-22.66-13.33-22.66z m0-104.634h-411.87c-7.33 0-13.329 9.997-13.329 22.66 0 12.662 5.998 22.66 13.33 22.66h411.869c7.331 0 13.33-9.998 13.33-22.66 0.666-12.663-5.333-22.66-13.33-22.66z m0-104.633h-411.87c-7.33 0-13.329 9.997-13.329 22.66 0 12.662 5.998 22.659 13.33 22.659h411.869c7.331 0 13.33-9.997 13.33-22.66 0.666-12.662-5.333-22.66-13.33-22.66z m293.24-243.257C955.86 57.982 897.878 0 826.567 0H195.434h-0.667-0.666C124.789 0 68.14 57.982 68.14 129.292V883.72c0 9.33 3.998 18.66 10.663 25.325l102.634 101.968c13.33 13.33 33.99 13.33 47.318 0L332.723 906.38l108.633 107.299c13.329 13.33 33.989 13.33 47.318 0l107.966-107.3 108.632 107.3c6.665 6.665 15.329 9.997 23.326 9.997 8.664 0 16.661-3.332 23.326-9.997l97.969-97.303c6.665-6.664 10.663-15.328 10.663-25.325V253.253c54.65-14.662 95.303-64.646 95.303-123.96z m-220.596 821.74L623.965 841.067c-13.33-13.33-34.656-13.33-47.985 0L464.682 951.032 353.384 840.401c-13.33-13.33-34.656-13.33-47.985 0l-107.3 105.966-69.977-69.311V119.962c0-33.323 26.658-60.647 59.314-60.647H188.77c34.656 0 62.647 27.324 62.647 60.647 0 33.323-27.991 60.647-62.647 60.647-19.327 0-34.656 15.995-34.656 35.99 0 19.993 15.329 35.988 34.656 35.988h611.806V885.72l-65.312 65.312z m77.308-755.76l-540.495-3.333c32.656-15.995 32.656-48.651 32.656-57.981 0-36.655-5.331-52.65-14.662-70.645l541.162-0.666c33.99 0 69.312 35.322 69.312 68.645 0 32.656-35.989 62.647-69.978 62.647l-17.995 1.332z" p-id="11357" fill="#515151"></path></svg>