<svg t="1587717699138" class="icon" viewBox="0 0 1024 1024" version="1.1" xmlns="http://www.w3.org/2000/svg" p-id="8444" width="40" height="40"><path d="M727.552 598.016c33.28 0 59.904-25.6 59.904-57.344 0-31.744-26.624-57.344-59.904-57.344-33.28 0-59.904 25.6-59.904 57.344 0 31.744 26.624 57.344 59.904 57.344z m119.296 59.392c0-31.744 0-48.64-32.256-48.64H798.72L734.208 737.28l16.384-112.64-24.064-27.136-24.064 27.136 15.872 113.152-64.512-129.024h-15.872c-32.256 0-32.256 16.896-32.256 48.64v96.768h241.664v-96.768z m-632.832 22.016h186.368v37.376H214.016v-37.376zM921.6 232.448h-334.848V158.208s0-37.376-37.376-37.376H474.624c-37.376 0-37.376 37.376-37.376 37.376v74.752H102.4c-37.376 0-37.376 37.376-37.376 37.376v595.968c0 37.376 37.376 37.376 37.376 37.376h819.2s37.376 0 37.376-37.376V270.336c-0.512-0.512-0.512-37.888-37.376-37.888z m-409.6-80.384c16.896 0 31.232 13.824 31.232 31.232 0 16.896-13.824 31.232-31.232 31.232-16.896 0-31.232-13.824-31.232-31.232 0-17.408 14.336-31.232 31.232-31.232z m-74.24 117.76h148.992V307.2H437.76v-37.376zM921.6 865.792H102.4V344.576h819.2v521.216z m-707.584-409.6h334.848v37.376H214.016v-37.376z m0 111.616h260.608v37.376H214.016v-37.376z" p-id="8445" fill="#515151"></path></svg>