<svg t="1585924116778" class="icon" viewBox="0 0 1024 1024" version="1.1" xmlns="http://www.w3.org/2000/svg" p-id="6473" width="22" height="22"><path d="M262.994863 943.981563H121.383629c-17.075666 0-27.377465-9.529814-31.997375-15.211703-7.975844-9.811808-11.065784-22.579559-8.471834-35.037316 41.537189-199.518103 217.61375-345.225257 420.881779-349.953165 3.385934 0.125998 6.779868 0.209996 10.193801 0.209996 3.443933 0 6.867866-0.085998 10.283799-0.213996 49.705029 1.133978 98.256081 10.479795 144.469179 27.833457 20.679596 7.769848 43.741146-2.703947 51.506994-23.385543 7.765848-20.679596-2.703947-43.741146-23.385544-51.506994a516.019921 516.019921 0 0 0-19.989609-7.023863C741.075526 440.033406 783.984688 360.930951 783.984688 271.994688 783.984688 122.017617 661.969071 0 511.99 0S239.995313 122.017617 239.995313 271.994688c0 89.016261 42.98316 168.180715 109.283865 217.831745-60.740814 19.995609-117.7397 51.091002-167.622726 92.122201-91.462214 75.232531-155.054972 180.168481-179.060503 295.480229-7.523853 36.131294 1.487971 73.242569 24.725517 101.814011C50.441015 1007.674319 84.726345 1023.98 121.383629 1023.98H262.994863c22.091569 0 39.999219-17.90765 39.999219-39.999218s-17.90765-39.999219-39.999219-39.999219zM319.99375 271.994688c0-105.867932 86.128318-191.99625 191.99625-191.99625s191.99625 86.128318 191.99625 191.99625c0 102.731994-81.106416 186.87235-182.648432 191.766254a519.627851 519.627851 0 0 0-9.347818-0.103998c-3.127939 0-6.253878 0.045999-9.377817 0.101998C401.084166 458.851038 319.99375 374.716681 319.99375 271.994688z" p-id="6474" fill="#000000"></path><path d="M993.358598 689.200539c-17.121666-38.299252-55.688912-63.114767-98.350079-63.212765h-125.007558c-44.999121 0-84.258354 26.519482-100.056046 67.612679A479.634632 479.634632 0 0 0 662.591059 713.986055H400.704174a40.005219 40.005219 0 0 0-28.69944 12.135763l-68.710658 70.774618c-15.133704 15.587696-15.057706 40.405211 0.169997 55.898908l69.998633 71.222609a39.999219 39.999219 0 0 0 28.527443 11.961766h129.997461c22.091569 0 39.999219-17.90765 39.999218-39.999219s-17.90765-39.999219-39.999218-39.999218h-113.225789l-30.855397-31.395387L417.619843 793.984492h274.97663a39.999219 39.999219 0 0 0 38.851241-30.487404c3.235937-13.213742 7.295858-25.917494 13.167743-41.191196 3.871924-10.071803 13.595734-16.319681 25.481502-16.319681H894.914521c11.311779 0.025999 21.047589 6.105881 25.409504 15.86369 10.73779 24.023531 23.55954 61.214804 23.655538 101.970009 0.095998 41.057198-12.711752 79.100455-23.477542 103.785973-4.339915 9.955806-14.157723 16.37568-25.119509 16.37568h-126.313533c-11.065784-0.025999-21.431581-7.14586-25.791496-17.715654-4.677909-11.341778-8.731829-24.291526-12.393758-39.593227-5.1419-21.48358-26.733478-34.731322-48.209058-29.591422-21.48558 5.1419-34.733322 26.727478-29.591423 48.211059 4.641909 19.397621 9.955806 36.235292 16.241683 51.474994 16.797672 40.727205 55.876909 67.108689 99.652054 67.210687h126.499529a107.243905 107.243905 0 0 0 98.358079-64.400742c13.82373-31.701381 30.273409-81.020418 30.143411-135.947345-0.127998-54.77693-16.721673-103.337982-30.619402-134.429374z" p-id="6475" fill="#000000"></path><path d="M861.983164 823.983907m-39.999218 0a39.999219 39.999219 0 1 0 79.998437 0 39.999219 39.999219 0 1 0-79.998437 0Z" p-id="6476" fill="#000000"></path></svg>