<svg t="1587651131577" class="icon" viewBox="0 0 1024 1024" version="1.1" xmlns="http://www.w3.org/2000/svg" p-id="3147" width="22" height="22"><path d="M499.429 499.643C549.999 459.392 582.535 397.5 582.535 328c0-121-98.428-219.429-219.428-219.429S143.678 207 143.678 328c0 70.25 33.322 132.714 84.822 172.928C94.678 555.321 0 686.572 0 839.678v38.036c0 20.215 16.357 36.572 36.571 36.572h658.286c20.215 0 36.572-16.357 36.572-36.572v-38.036c0-154.428-96.357-286.499-232-340.035zM216.82 328c0-80.678 65.607-146.286 146.286-146.286S509.392 247.322 509.392 328c0 79.643-64.036 144.357-143.285 146-0.142 0-0.25-0.036-0.393-0.036-1.285 0-2.57 0.18-3.856 0.18C281.787 473.463 216.82 408.25 216.82 328zM73.143 841.143v-1.465c0-159.82 128.857-289.892 288.108-292.32 0.607 0 1.214 0.07 1.858 0.07 1.499 0 2.964-0.213 4.463-0.213 160.465 1 290.714 131.785 290.714 292.463l-585.143 1.465zM693.392 256h329.143v73.143H693.392V256z m0 182.857h329.143V512H693.392v-73.143z m111.179 182.857h217.964v73.143H804.571v-73.143z" p-id="3148" fill="#515151"></path></svg>