<svg t="1587736074756" class="icon" viewBox="0 0 1024 1024" version="1.1" xmlns="http://www.w3.org/2000/svg" p-id="23900" width="20" height="20"><path d="M966.776 602.353c-15.058-3.012-30.117-12.047-42.164-24.094-18.07-18.07-27.106-39.153-27.106-66.259 0-24.094 9.035-48.188 27.106-66.259 12.047-12.047 24.094-21.082 42.164-24.094l27.106-9.035-6.023-27.106c-6.024-21.082-12.047-42.165-21.083-63.247-9.035-21.083-18.07-39.153-30.117-57.224L921.6 240.941 897.506 256c-15.059 9.035-30.118 12.047-45.177 12.047-24.094 0-48.188-9.035-63.247-27.106-18.07-18.07-27.106-39.153-27.106-63.247 0-15.059 3.012-30.118 12.048-45.176l9.035-30.118-24.094-15.059c-18.07-12.047-39.153-21.082-60.236-30.117-21.082-9.036-42.164-15.06-63.247-21.083l-27.106-6.023-6.023 27.106c-3.012 15.058-12.047 30.117-24.094 39.152-33.13 33.13-93.365 33.13-129.506 0-12.047-12.047-18.07-24.094-24.094-39.152l-9.035-27.106-27.106 6.023c-21.083 6.024-42.165 12.047-63.247 21.083-21.083 9.035-42.165 18.07-60.236 30.117L240.941 102.4 256 126.494c9.035 15.059 12.047 30.118 12.047 45.177 0 24.094-9.035 48.188-27.106 63.247-18.07 21.082-42.165 30.117-66.259 30.117-15.058 0-30.117-3.011-45.176-12.047L102.4 240.941l-15.059 24.094c-9.035 18.07-21.082 36.141-30.117 60.236-9.036 21.082-15.06 42.164-21.083 63.247l-6.023 27.106 27.106 6.023c15.058 3.012 30.117 12.047 39.152 24.094 18.071 18.07 27.106 42.165 27.106 66.259s-9.035 48.188-27.106 63.247c-12.047 12.047-24.094 21.082-42.164 24.094l-24.094 9.035 9.035 27.106c6.023 21.083 12.047 39.153 18.07 54.212l3.012 9.035c9.036 21.083 18.07 39.153 30.118 60.236l12.047 24.094L126.494 768c15.059-9.035 27.106-12.047 45.177-12.047 24.094 0 48.188 9.035 66.258 27.106 18.071 18.07 27.106 39.153 27.106 63.247 0 15.059-3.011 33.13-12.047 45.176L240.941 921.6l24.094 15.059c21.083 12.047 39.153 21.082 60.236 30.117 21.082 9.036 42.164 15.06 60.235 21.083l27.106 9.035 9.035-27.106c3.012-15.059 12.047-30.117 24.094-42.164 36.141-33.13 93.365-33.13 129.506 0 12.047 12.047 21.082 24.094 24.094 42.164l9.035 27.106 27.106-9.035c21.083-6.024 42.165-12.047 60.236-21.083 21.082-9.035 42.164-18.07 60.235-30.117l24.094-15.059L768 897.506c-9.035-15.059-12.047-30.118-12.047-45.177 0-24.094 9.035-48.188 27.106-63.247 18.07-18.07 39.153-27.106 63.247-27.106 15.059 0 33.13 3.012 45.176 12.048l24.094 15.058 15.06-24.094c12.046-21.082 21.082-39.153 30.117-60.235s15.059-42.165 21.082-63.247l9.036-27.106-24.095-12.047z m-57.223 75.294c-3.012 9.035-9.035 18.07-12.047 30.118-15.059-6.024-30.118-6.024-48.188-6.024-39.153 0-78.306 15.059-105.412 45.177-27.106 27.106-45.177 66.258-45.177 105.411 0 15.06 3.012 33.13 6.024 48.189-9.035 6.023-18.07 9.035-30.118 12.047-9.035 3.011-21.082 9.035-30.117 12.047-6.024-15.06-18.07-27.106-30.118-39.153-27.106-27.106-66.259-42.165-105.412-42.165-39.153 0-78.306 15.059-105.412 42.165-12.047 12.047-21.082 24.094-30.117 39.153-9.035-3.012-21.083-6.024-30.118-12.047-9.035-3.012-18.07-9.036-30.117-12.047 6.023-15.06 6.023-30.118 6.023-48.189 0-39.153-15.059-78.305-45.176-105.411-27.106-27.106-66.26-45.177-105.412-45.177-15.059 0-33.13 3.012-48.188 6.024-3.012-9.036-9.036-15.06-12.047-24.094l-3.012-6.024-9.036-27.106c15.06-9.035 27.106-18.07 39.153-30.117 27.106-30.118 42.165-66.26 42.165-105.412 0-39.153-15.059-78.306-42.165-105.412-12.047-12.047-24.094-21.082-39.153-30.118 3.012-9.035 6.024-18.07 12.048-30.117 3.011-9.036 9.035-21.083 12.047-30.118 15.058 6.024 30.117 6.024 48.188 6.024 39.153 0 78.306-15.06 105.412-45.177 27.105-27.106 45.176-66.259 45.176-105.412 0-15.058-3.012-33.13-6.023-48.188 9.035-6.023 18.07-9.035 30.117-12.047 9.035-3.012 21.083-9.035 30.118-12.047 6.023 15.059 18.07 27.106 30.117 39.153 27.106 27.106 66.26 42.165 105.412 42.165 39.153 0 78.306-15.06 105.412-42.165 12.047-12.047 21.082-24.094 30.118-39.153 9.035 3.012 21.082 6.024 30.117 12.047 9.036 3.012 21.083 9.035 30.118 12.047-6.024 15.059-6.024 33.13-6.024 48.188 0 39.153 15.06 78.306 45.177 105.412 27.106 27.106 66.259 45.177 105.412 45.177 15.058 0 33.13-3.012 48.188-6.024 6.023 9.035 9.035 18.07 12.047 30.118 3.012 9.035 9.035 21.082 12.047 30.117-15.059 6.024-27.106 18.07-39.153 30.118-27.106 30.118-42.165 66.259-42.165 105.412 0 39.153 15.06 78.306 42.165 105.412 12.047 12.047 24.094 21.082 39.153 27.105-3.012 9.036-6.024 18.071-12.047 30.118z" fill="#000000" p-id="23901"></path><path d="M512 331.294c-99.388 0-180.706 81.318-180.706 180.706S412.612 692.706 512 692.706 692.706 611.388 692.706 512 611.388 331.294 512 331.294z m0 301.177c-66.259 0-120.47-54.212-120.47-120.471S445.74 391.53 512 391.53 632.47 445.74 632.47 512 578.26 632.47 512 632.47z" fill="#000000" p-id="23902"></path></svg>