<svg t="1587811693228" class="icon" viewBox="0 0 1024 1024" version="1.1" xmlns="http://www.w3.org/2000/svg" p-id="30567" width="18" height="18"><path d="M159.744 256h384c17.92 0 31.744 14.336 31.744 31.744s-14.336 31.744-31.744 31.744h-384c-17.92 0-31.744-14.336-31.744-31.744S142.336 256 159.744 256zM704.512 287.744a31.744 31.744 0 1 0 63.488 0 31.744 31.744 0 1 0-63.488 0z" p-id="30568" fill="#2c2c2c"></path><path d="M896 0H256c-70.656 0-128 57.344-128 128C57.344 128 0 185.344 0 256v640c0 70.656 57.344 128 128 128h640c70.656 0 128-57.344 128-128 70.656 0 128-57.344 128-128V128c0-70.656-57.344-128-128-128z m-64 896c0 35.328-28.672 64-64 64H128c-35.328 0-64-28.672-64-64V448h768v448z m0-512H64V256c0-35.328 28.672-64 64-64h640c35.328 0 64 28.672 64 64v128z m128 384c0 35.328-28.672 64-64 64V256c0-70.656-57.344-128-128-128H192c0-35.328 28.672-64 64-64h640c35.328 0 64 28.672 64 64v640z" p-id="30569" fill="#2c2c2c"></path></svg>