<svg t="1587717974232" class="icon" viewBox="0 0 1024 1024" version="1.1" xmlns="http://www.w3.org/2000/svg" p-id="9528" width="22" height="22"><path d="M801.493 993.067c-34.986 0-69.546-13.654-95.146-39.04-38.4-38.4-49.494-96-29.44-145.494L257.28 388.693c-49.28 20.054-107.093 8.96-145.493-29.44-38.827-38.826-50.134-98.986-27.734-149.12 2.774-6.4 8.747-11.093 15.574-12.373 6.826-1.28 14.08 0.853 18.986 5.973l49.707 49.707 40.96-40.96-49.707-49.707c-4.906-4.906-7.253-12.16-5.973-18.986 1.28-6.827 5.973-12.8 12.373-15.574 50.347-22.4 110.294-11.093 149.12 27.734 38.4 38.4 49.494 96 29.44 145.493l420.054 419.627c49.28-20.054 107.093-8.96 145.493 29.44 38.827 38.826 50.133 98.986 27.733 149.12-2.773 6.4-8.746 11.093-15.573 12.373-6.827 1.28-14.08-0.853-18.987-5.973l-49.92-49.707-40.96 40.96 49.707 49.707c4.907 4.906 7.253 12.16 5.973 18.986-1.28 6.827-5.973 12.8-12.373 15.574-17.28 7.68-35.84 11.52-54.187 11.52zM261.76 341.76c5.547 0 10.88 2.133 15.147 6.187L718.08 789.12c6.827 6.827 8.107 17.067 3.627 25.6-19.84 35.413-13.654 80.427 15.146 109.227 18.347 18.346 43.307 27.52 68.48 26.666l-37.76-37.76c-4.053-4.053-6.186-9.386-6.186-15.146s2.346-11.094 6.186-15.147l71.254-71.253c8.32-8.32 21.76-8.32 30.08 0l37.76 37.76c1.066-24.96-8.32-50.134-26.667-68.48-28.8-28.8-73.813-34.987-109.227-15.147-8.32 4.693-18.773 3.2-25.6-3.627L304 320.853c-6.827-6.826-8.107-17.066-3.627-25.6 19.84-35.413 13.654-80.426-15.146-109.226-18.347-18.347-43.307-27.52-68.48-26.667l37.76 37.76c4.053 4.053 6.186 9.387 6.186 15.147s-2.346 11.093-6.186 15.146l-71.04 71.254c-4.054 4.053-9.387 6.186-15.147 6.186s-11.093-2.346-15.147-6.186l-37.76-37.76c-1.066 24.96 8.32 50.133 26.667 68.48 28.8 28.8 73.813 34.986 109.227 15.146 3.2-1.92 6.826-2.773 10.453-2.773z" p-id="9529" fill="#000000"></path><path d="M177.707 979.413c-5.76 0-11.094-2.346-15.147-6.186l-69.76-69.76c-4.053-4.054-6.187-9.387-6.187-15.147s2.347-11.093 6.187-15.147L372.693 593.28c8.32-8.32 21.76-8.32 30.08 0 8.32 8.32 8.32 21.76 0 30.08L138.24 888.32l39.467 39.467L442.453 663.04c8.32-8.32 21.76-8.32 30.08 0 8.32 8.32 8.32 21.76 0 30.08l-279.68 280.107c-4.053 3.84-9.6 6.186-15.146 6.186z m458.24-463.146c-5.547 0-10.88-2.134-15.147-6.187-8.32-8.32-8.32-21.76 0-30.08l200.747-200.747c7.04-7.04 18.346-8.32 26.666-2.773 0.64 0.427 16.854 11.093 39.68 33.92 12.8 12.8 26.88 33.493 39.467 54.613-2.773-35.626-10.24-77.226-27.733-112.853-28.8-58.453-109.44-138.24-142.934-170.027l-51.2 51.2 76.16 76.16c8.32 8.32 8.32 21.76 0 30.08L580.907 440.32c-8.32 8.32-21.76 8.32-30.08 0-8.32-8.32-8.32-21.76 0-30.08l185.6-185.6-76.16-76.16c-8.32-8.32-8.32-21.76 0-30.08l80.64-80.64c8.106-8.107 20.906-8.32 29.44-0.853 5.12 4.693 127.36 114.986 167.466 196.693 45.654 92.587 32 212.907 31.36 218.027-1.066 9.386-8.32 17.066-17.706 18.56-9.387 1.493-18.56-3.414-22.827-11.947-11.52-24.533-46.933-93.44-71.04-117.333-7.467-7.467-14.08-13.44-19.2-17.707L651.093 509.867c-4.266 4.266-9.6 6.4-15.146 6.4z" p-id="9530" fill="#000000"></path></svg>