<svg t="1586401380418" class="icon" viewBox="0 0 1024 1024" version="1.1" xmlns="http://www.w3.org/2000/svg" p-id="3566" width="20" height="20"><path d="M952.0128 410.146133H665.6C776.533333 19.933867 589.141333 0 589.141333 0c-79.496533 0-63.010133 59.8016-69.0176 69.768533C520.123733 260.608 307.2 410.146133 307.2 410.146133v541.184C307.2 1004.7488 383.658667 1024 413.696 1024h430.353067c40.482133 0 73.489067-101.102933 73.489066-101.102933C1024 578.218667 1024 475.682133 1024 475.682133c0-71.202133-71.9872-65.536-71.9872-65.536zM225.655467 409.6H39.1168C0.580267 409.6 0 442.743467 0 442.743467l38.536533 546.474666C38.536533 1024 78.267733 1024 78.267733 1024h161.450667c33.655467 0 33.348267-23.005867 33.348267-23.005867V451.037867C273.066667 409.053867 225.655467 409.6 225.655467 409.6z" p-id="3567" fill="#515151"></path></svg>